<?xml version="1.0" encoding="UTF-8"?>
<!DOCTYPE svg PUBLIC "-//W3C//DTD SVG 1.1//EN" "http://www.w3.org/Graphics/SVG/1.1/DTD/svg11.dtd">
<!-- Creator: CorelDRAW 2021 (64-Bit) -->
<svg xmlns="http://www.w3.org/2000/svg" xml:space="preserve" width="90.6673mm" height="98.2893mm" version="1.1" style="shape-rendering:geometricPrecision; text-rendering:geometricPrecision; image-rendering:optimizeQuality; fill-rule:evenodd; clip-rule:evenodd"
viewBox="0 0 8948.95 9701.25"
 xmlns:xlink="http://www.w3.org/1999/xlink"
 xmlns:xodm="http://www.corel.com/coreldraw/odm/2003">
 <defs>
  <style type="text/css">
   <![CDATA[
    .fil0 {fill:white;fill-rule:nonzero}
   ]]>
  </style>
 </defs>
 <g id="Layer_x0020_1">
  <metadata id="CorelCorpID_0Corel-Layer"/>
  <path class="fil0" d="M490.81 6978.45c-313.65,-611.46 -490.81,-1304.09 -490.81,-2037.31 0,-735.82 178.48,-1430.41 494.2,-2043.08l58.71 50.97c-305.02,598.34 -477.16,1275.36 -477.16,1992.11 0,718.55 173.26,1397.51 480,1997.33l-64.94 39.97zm7925.25 -4152.24c339.76,630.26 532.88,1350.58 532.88,2114.93 0.95,771.77 -194.65,1498.55 -539.43,2133.06l-65.95 -37.07c339.53,-623.59 532.68,-1337.76 532.68,-2095.98 0,-743.36 -199.5,-1465.22 -526.4,-2079.65l66.23 -35.29z"/>
  <path class="fil0" d="M1107.8 2665.76l43.79 -104.39c8.83,-21.02 9.2,-37.28 1.13,-48.76 -8.06,-11.47 -24.65,-23.98 -49.77,-37.58 1.03,-3.6 2.51,-7.77 4.48,-12.5 2,-4.74 4.71,-9.4 8.17,-14.02 22.61,7.48 42.18,14.69 58.74,21.63 16.53,6.94 30.07,12.87 40.64,17.81l-123.82 295.08c-2.14,-0.9 -5.38,-2.24 -9.68,-4.06 -4.27,-1.8 -8.64,-4.65 -13.08,-8.52 3.98,-15.51 5.12,-27.28 3.43,-35.32 -1.67,-8.02 -8.09,-14.39 -19.26,-19.08l-311.83 -130.85c-10.21,9.87 -19.51,23.64 -27.93,41.33 -10.3,-4.33 -17.68,-8.45 -22.12,-12.32l120.03 -286.05c9.63,3.54 22.72,8.77 39.25,15.71 16.53,6.94 34.78,16.11 54.75,27.52 -0.39,3.37 -3.48,11.93 -9.25,25.66 -26.24,-8.48 -46.12,-11.64 -59.67,-9.5 -13.53,2.15 -24.61,13.54 -33.26,34.16l-41.37 98.57 157.19 65.96 36.11 -102.29 9.2 -21.92 38.65 16.24 -9.2 21.91 -45.78 98.23 160.44 67.32z"/>
  <path class="fil0" d="M1191.97 1669.56c2.62,1.13 5.77,2.87 9.49,5.25 3.74,2.41 7.27,5.74 10.58,10.09 -13.95,28.67 -11.5,49.05 7.33,61.11l311.84 199.68 -15.83 24.72 -378.64 23.83 -68.4 1.86 275.39 176.33c11.23,-7.19 23.27,-19.96 36.11,-38.28 1.18,0.76 3.34,2.13 6.46,4.15 3.15,2 7.87,5.86 14.17,11.58l-74.6 116.5c-2.61,-1.13 -5.77,-2.86 -9.5,-5.26 -3.71,-2.38 -7.42,-5.86 -11.12,-10.45 13.3,-28.53 10.91,-48.58 -7.14,-60.14l-284.2 -181.97c-11.59,8.62 -22.53,20.96 -32.83,37.04 -9.71,-7.3 -16.14,-12.81 -19.31,-16.51l60.28 -94.13 295.8 -18.83 90.68 -1.7 -235.37 -150.69c-11.23,7.19 -23.27,19.94 -36.09,38.28 -1.19,-0.76 -3.45,-2.21 -6.77,-4.34 -3.35,-2.14 -7.77,-5.79 -13.3,-11.01l74.96 -117.09z"/>
  <path class="fil0" d="M1829.13 1267.64c2,1.24 4.64,3.38 7.87,6.4 3.24,3.02 6.79,7.93 10.64,14.74 -9.1,13.81 -14.33,24.86 -15.7,33.14 -1.36,8.27 2.22,16.4 10.72,24.35l111.77 104.49 -23.87 25.52 -26.88 -5.03c-7.23,39.13 -23.76,72.48 -49.52,100.03 -37.85,40.5 -84.63,61.18 -140.29,62.05 -55.66,0.9 -108.3,-21.88 -157.99,-68.34 -49.67,-46.45 -74.89,-100.79 -75.67,-163.05 -0.78,-62.25 20.31,-116.35 63.25,-162.28 30.23,-32.31 64.94,-58.52 104.14,-78.63 20.44,19.74 41.72,45.4 63.87,76.95 -6.67,7.15 -11.78,12.25 -15.3,15.35 -20.62,-15.47 -41.93,-21.66 -63.91,-18.62 -21.96,3.05 -41.71,13.93 -59.19,32.63 -32.78,35.05 -46.38,73.8 -40.82,116.29 5.55,42.5 29.92,83.96 73.12,124.34 43.21,40.4 84.82,62.23 124.81,65.51 39.98,3.27 74.13,-10.24 102.44,-40.52 19.4,-20.75 33.05,-45.6 40.98,-74.53l-91.34 -85.41c-15.53,8.42 -30.01,19.13 -43.4,32.09 -8.17,-7.62 -14.51,-14.5 -18.99,-20.6l109.27 -116.87z"/>
  <path class="fil0" d="M2231.35 1173.44l90.06 -68.58c18.14,-13.83 26.59,-27.73 25.32,-41.7 -1.26,-13.96 -9.39,-33.07 -24.37,-57.38 2.68,-2.63 6.04,-5.48 10.13,-8.61 4.08,-3.1 8.75,-5.78 14.06,-8.05 15.88,17.76 29.24,33.8 40.1,48.05 10.87,14.28 19.65,26.18 26.34,35.72l-254.59 193.9c-1.4,-1.86 -3.53,-4.64 -6.36,-8.36 -2.8,-3.68 -5.17,-8.34 -7.08,-13.92 11.18,-11.44 18.05,-21.06 20.61,-28.87 2.55,-7.79 0.16,-16.51 -7.18,-26.15l-204.89 -269.02c-13.76,3.44 -28.71,10.74 -44.83,21.85 -6.77,-8.89 -11.12,-16.14 -13.02,-21.71l246.77 -187.95c6.58,7.88 15.32,18.94 26.18,33.2 10.86,14.27 22.09,31.33 33.71,51.17 -2.03,2.72 -8.98,8.61 -20.83,17.64 -18.52,-20.46 -34.16,-33.11 -46.96,-38.01 -12.8,-4.9 -28.08,-0.56 -45.87,12.99l-85.05 64.76 103.29 135.62 82.35 -70.6 18.9 -14.41 25.41 33.36 -18.9 14.39 -88.71 62.28 105.41 138.4z"/>
  <path class="fil0" d="M2801.52 352.27c1.7,2.27 3.56,5.37 5.6,9.28 2.05,3.94 3.42,8.61 4.15,14.01 -26.41,17.88 -34.46,36.77 -24.16,56.62l170.57 328.66 -26.06 13.52 -340.01 -168.32 -60.19 -32.54 150.61 290.25c13.32,-0.62 30.13,-5.69 50.41,-15.15 0.64,1.26 1.82,3.51 3.53,6.82 1.72,3.31 3.89,9 6.5,17.1l-122.78 63.72c-1.71,-2.28 -3.58,-5.37 -5.62,-9.3 -2.03,-3.93 -3.5,-8.8 -4.43,-14.62 25.78,-18.09 33.71,-36.66 23.85,-55.67l-155.43 -299.54c-14.36,1.68 -30,6.91 -46.95,15.71 -4.76,-11.18 -7.57,-19.16 -8.48,-23.94l99.21 -51.48 265.71 131.31 79.42 43.79 -128.74 -248.06c-13.33,0.62 -30.13,5.67 -50.39,15.14 -0.65,-1.24 -1.89,-3.62 -3.7,-7.14 -1.83,-3.51 -3.84,-8.9 -6.03,-16.16l123.41 -64.04z"/>
  <path class="fil0" d="M3472.28 183.07l97.86 323.69c14.1,1.59 30.44,0.05 48.99,-4.57 2.84,9.36 4.67,17.82 5.47,25.35l-153.8 46.51c-3.51,-11.61 -5.34,-20.05 -5.49,-25.35 14.93,-6.97 24.83,-13.6 29.74,-19.96 4.89,-6.35 5.59,-15.31 2.09,-26.92l-40.05 -132.41 -184.57 55.81 47.51 157.16c14.56,1.44 30.66,-0.01 48.31,-4.37 0.39,1.33 1.14,3.78 2.21,7.34 1.09,3.57 2.16,9.57 3.26,18.01l-153.14 46.3c-0.68,-2.25 -1.69,-5.58 -3.04,-10.05 -1.34,-4.45 -1.93,-9.61 -1.77,-15.5 14.49,-6.84 24.29,-13.44 29.39,-19.87 5.11,-6.4 5.93,-15.4 2.42,-27l-97.85 -323.68c-14.11,-1.57 -30.67,0.01 -49.66,4.81 -3.24,-10.7 -4.77,-19 -4.6,-24.89l153.15 -46.31c3.5,11.6 5.26,19.82 5.27,24.69 -14.63,6.35 -24.46,12.86 -29.51,19.48 -5.04,6.64 -5.81,15.75 -2.31,27.34l40.24 133.1 184.57 -55.82 -47.71 -157.83c-14.55,-1.44 -30.65,0.01 -48.3,4.4 -0.41,-1.33 -1.19,-3.9 -2.34,-7.71 -1.14,-3.78 -2.12,-9.45 -2.94,-16.98l153.82 -46.52c1.13,2.09 2.36,5.37 3.7,9.84 1.35,4.45 1.66,9.48 0.92,15.06 -14.64,6.35 -24.47,12.86 -29.52,19.48 -5.04,6.64 -5.82,15.76 -2.32,27.34z"/>
  <path class="fil0" d="M3969.84 438.3l112.35 -13.86c22.64,-2.78 36.92,-10.54 42.88,-23.24 5.94,-12.7 8.57,-33.32 7.88,-61.86 3.63,-0.92 7.99,-1.69 13.09,-2.32 5.08,-0.62 10.47,-0.58 16.2,0.12 4.76,23.33 8.22,43.91 10.43,61.72 2.19,17.79 3.78,32.5 4.74,44.12l-317.6 39.17c-0.3,-2.32 -0.71,-5.79 -1.28,-10.42 -0.57,-4.61 -0.27,-9.8 0.9,-15.59 15.43,-4.23 26.21,-9.1 32.34,-14.55 6.14,-5.43 8.47,-14.18 6.99,-26.2l-41.4 -335.63c-13.64,-3.95 -30.21,-5.18 -49.75,-3.7 -1.36,-11.1 -1.47,-19.54 -0.31,-25.32l307.88 -37.97c1.72,10.12 3.67,24.07 5.87,41.87 2.19,17.8 3.31,38.19 3.33,61.18 -3.13,1.32 -12.09,2.9 -26.88,4.72 -5.68,-26.98 -12.81,-45.81 -21.4,-56.5 -8.6,-10.67 -23.97,-14.63 -46.18,-11.89l-106.08 13.09 20.87 169.18 106.71 -19.48 23.6 -2.91 5.12 41.61 -23.59 2.9 -107.99 9.08 21.29 172.68z"/>
  <path class="fil0" d="M4547.1 62.3l-4.53 338.15c13.44,5.76 29.23,9.22 47.39,10.41 -0.02,1.4 -0.06,3.95 -0.11,7.68 -0.05,3.72 -0.83,9.76 -2.34,18.13l-159.98 -2.14c0.03,-2.33 0.08,-5.82 0.13,-10.49 0.07,-4.64 1.08,-9.75 3.02,-15.32 15.85,-2.11 27.21,-5.46 34.01,-10.03 6.82,-4.55 10.32,-12.9 10.48,-25.01l4.53 -338.14c-12.98,-5.76 -29.24,-9.23 -48.78,-10.41 0.15,-11.18 1.2,-19.56 3.13,-25.13l159.97 2.14c-0.16,12.12 -0.95,20.48 -2.42,25.14 -15.86,1.64 -27.2,4.87 -34.02,9.66 -6.82,4.81 -10.31,13.27 -10.48,25.36z"/>
  <path class="fil0" d="M4981.54 239.18l51.08 8.01c58.45,9.16 92.15,-14.9 101.14,-72.2 8.98,-57.29 -15.74,-90.52 -74.18,-99.68l-51.07 -8.02 -26.97 171.89zm236.19 243.55c-1.59,10.12 -3.91,18.96 -6.98,26.49l-95.94 -15.05 -57.22 -180.83c-3.79,-11.9 -8.41,-20.78 -13.85,-26.57 -5.48,-5.8 -14.85,-9.76 -28.21,-11.84l-38.65 -6.07 -25.13 160.14c18.17,10.38 36.58,17.76 55.24,22.1 -0.23,1.37 -0.62,3.9 -1.18,7.59 -0.58,3.67 -2.21,9.54 -4.9,17.63l-168.43 -26.42c0.37,-2.3 0.92,-5.75 1.63,-10.37 0.73,-4.57 2.45,-9.5 5.15,-14.74 16.01,0.16 27.71,-1.54 35.11,-5.11 7.38,-3.54 12.02,-11.3 13.91,-23.26l52.29 -333.38c-13.33,-8.23 -28.89,-14.19 -46.71,-17.93 1.73,-11.03 3.97,-19.19 6.67,-24.43l177.4 27.82c46.93,7.36 81.55,23.4 103.82,48.12 22.3,24.73 30.67,54.79 25.1,90.22 -4.18,26.68 -15.12,48.3 -32.8,64.87 -17.69,16.56 -41.38,26.28 -71.05,29.18 11.42,8.37 20.98,24.03 28.69,46.92l36.41 106.14c5.37,16.86 11.53,28.68 18.49,35.43 6.97,6.75 17.34,11.2 31.13,13.36z"/>
  <path class="fil0" d="M6698.48 1144.69c-57.91,11.19 -110.31,0.36 -157.23,-32.51 -46.91,-32.89 -75.28,-77.22 -85.1,-133.03 -9.82,-55.77 4.86,-111.61 44.01,-167.51 39.16,-55.88 88.98,-88.81 149.41,-98.78 60.44,-9.96 116.79,3.36 169.06,39.97 38.14,26.73 65.53,55.03 82.15,84.87 -20.01,26.93 -42.82,52.17 -68.43,75.74 -10.31,-7.22 -15.9,-11.41 -16.76,-12.58 13.66,-21.14 18.64,-42.26 14.94,-63.35 -3.72,-21.08 -15.88,-38.83 -36.47,-53.26 -36.63,-25.65 -75.74,-32.74 -117.36,-21.24 -41.63,11.5 -78.86,40.7 -111.74,87.63 -32.89,46.93 -46.8,91.35 -41.75,133.28 5.01,41.92 24.99,75.09 59.89,99.56 34.91,24.45 72.32,37.01 112.22,37.69l3.15 23.51z"/>
  <path class="fil0" d="M7190.02 1153.08l-231.07 246.93c6.05,13.3 15.38,26.49 28.01,39.59 -0.96,1.04 -2.7,2.9 -5.24,5.61 -2.56,2.72 -7.21,6.67 -13.96,11.84l-116.82 -109.33c1.59,-1.7 3.98,-4.25 7.17,-7.66 3.17,-3.39 7.35,-6.49 12.54,-9.3 13.16,9.12 23.81,14.27 31.92,15.5 8.1,1.22 16.32,-2.6 24.57,-11.44l231.08 -246.91c-5.7,-12.99 -15.4,-26.51 -29.05,-40.56 7.65,-8.15 14.06,-13.64 19.25,-16.45l116.82 109.31c-8.29,8.85 -14.52,14.5 -18.73,16.96 -12.82,-9.48 -23.38,-14.73 -31.65,-15.77 -8.27,-1.04 -16.56,2.86 -24.82,11.69z"/>
  <path class="fil0" d="M7444.57 1357.18c5.32,-6.04 9.42,-10.25 12.32,-12.57 2.91,-2.32 5.06,-3.75 6.46,-4.25l99.63 124.3c-3.14,4.3 -9.26,10.08 -18.34,17.36 -14.35,-14.16 -24.29,-21.56 -29.86,-22.18 -5.56,-0.62 -10.08,0.46 -13.51,3.23 -3.46,2.76 -7.01,7.1 -10.64,12.99l-129.54 223.81c-8.65,15.28 -17.32,27.91 -26.04,37.87l1.74 2.18 317.64 -104.14c-4.38,-14.39 -11.85,-29.3 -22.41,-44.71 9.08,-7.28 16.06,-12 20.94,-14.11l77.33 96.5c-8.93,5.98 -16.36,10.14 -22.26,12.47 -18.41,-16.27 -38.09,-21.09 -59.02,-14.46l-386.05 120.48 -16.17 -20.16 214.83 -379.93c-4.01,-11.71 -9.7,-23.25 -17.07,-34.67z"/>
  <path class="fil0" d="M7887.76 2039.21l-291.32 171.74c2.06,14.48 7.29,29.76 15.71,45.9 -1.21,0.71 -3.41,2.01 -6.61,3.9 -3.22,1.9 -8.78,4.36 -16.72,7.41l-81.26 -137.82c1.99,-1.19 5.02,-2.96 9.04,-5.34 4,-2.36 8.88,-4.16 14.65,-5.38 10.04,12.47 18.8,20.42 26.25,23.86 7.42,3.46 16.36,2.11 26.81,-4.04l291.31 -171.73c-1.82,-14.07 -7.28,-29.78 -16.43,-47.11 9.64,-5.67 17.34,-9.13 23.11,-10.35l81.26 137.82c-10.44,6.15 -18.02,9.82 -22.75,10.98 -9.63,-12.69 -18.28,-20.72 -25.93,-24.04 -7.64,-3.35 -16.69,-1.93 -27.11,4.21z"/>
  <path class="fil0" d="M7775.83 2579.22l46.73 111.48c8.46,20.18 19.4,31.51 32.82,33.96 13.38,2.46 33,-0.46 58.83,-8.76 3.42,8.17 6.15,15.88 8.15,23.11 -21.86,11.7 -40.52,20.78 -55.99,27.27 -15.47,6.48 -28.22,11.58 -38.3,15.29l-124.24 -296.4c1.97,-1.33 5.1,-2.9 9.41,-4.7 4.28,-1.8 9.47,-2.71 15.52,-2.72 8.26,13.7 15.86,22.77 22.78,27.2 6.88,4.42 15.94,4.29 27.09,-0.38l311.88 -130.74c0.12,-14.18 -3.09,-30.26 -9.61,-48.23 1.27,-0.54 3.75,-1.59 7.39,-3.11 3.66,-1.53 9.2,-3.11 16.62,-4.71l61.85 147.57c-1.97,1.33 -5.1,2.89 -9.4,4.69 -4.3,1.82 -9.25,2.65 -14.89,2.46 -7.64,-13.45 -15.04,-22.35 -22.16,-26.68 -7.13,-4.33 -16.29,-4.18 -27.43,0.5l-317.04 132.9z"/>
  <path class="fil0" d="M894.62 7329.41l26.21 48.25c30,55.18 72.05,68.08 126.17,38.68 54.11,-29.4 66.18,-71.72 36.17,-126.91l-26.21 -48.25 -162.35 88.22zm-52.93 356.42c-9.57,5.19 -18.52,8.93 -26.85,11.21l-49.24 -90.65 115.57 -164.97c7.6,-10.88 12.09,-20.49 13.46,-28.83 1.37,-8.36 -1.36,-18.84 -8.2,-31.45l-19.84 -36.52 -151.28 82.2c2.96,22.04 8.65,42.33 17.03,60.85 -1.31,0.71 -3.7,2 -7.18,3.9 -3.46,1.89 -9.49,4.3 -18.02,7.25l-86.43 -159.08c2.17,-1.18 5.43,-2.96 9.79,-5.32 4.34,-2.36 9.58,-4.09 15.74,-5.18 10.21,13.6 19.19,22.36 26.97,26.29 7.77,3.94 17.31,2.84 28.61,-3.3l314.91 -171.11c-1.67,-16.54 -6.67,-33.53 -15.01,-50.96 10.43,-5.67 18.72,-9.05 24.88,-10.14l91.05 167.54c24.09,44.36 32.91,83.89 26.46,118.66 -6.46,34.73 -26.41,61.2 -59.9,79.4 -25.2,13.7 -50.49,18.43 -75.87,14.21 -25.38,-4.23 -48.87,-17.93 -70.46,-41.1 0.29,15.02 -6.72,33.21 -21.03,54.5l-66.03 99.2c-10.76,15.43 -16.75,28.25 -17.95,38.47 -1.19,10.23 1.75,21.84 8.83,34.89z"/>
  <path class="fil0" d="M1200.04 7918.21l82.62 104.93 126.82 -186.77 -28.04 13.58 -181.4 68.26zm-73.04 214.31c8.17,-6.44 15.97,-11.31 23.41,-14.66 19.19,16.37 34.67,26.83 46.47,31.42l65.99 -97.31 -95.49 -121.26 -115.66 43.86c2.29,13.29 11.01,30.36 26.15,51.18 -5.06,3.99 -12.86,8.86 -23.4,14.67l-89.99 -114.26c8.16,-6.44 15.96,-11.31 23.4,-14.67 21.03,18.72 43.62,24.21 67.79,16.52l389.77 -140.72c13.99,9.75 30.01,26.09 48.07,49.03l-234.44 349.91c-9,13.39 -13.25,25.4 -12.73,36.01 0.49,10.62 5.7,23.05 15.63,37.28 -9.93,6.55 -17.89,11.25 -23.86,14.06l-111.11 -141.07z"/>
  <path class="fil0" d="M1993.29 8365.78c-7.01,8.35 -16.95,19.54 -29.83,33.57 -12.89,14.03 -28.62,28.96 -47.21,44.79 -3.22,-1.61 -10.65,-7.77 -22.33,-18.49 17.93,-23.17 28.26,-41.9 30.99,-56.19 2.71,-14.29 -4.68,-29.48 -22.16,-45.54l-83.6 -76.81 -132.54 144.25 84.84 68.88 19.67 18.08 -30.13 32.79 -19.67 -18.08 -77.3 -77.08 -106.94 116.39c9.93,19.19 25.17,40.24 45.75,63.19 -7.36,8 -14.27,14.43 -20.72,19.26l-145.35 -133.55c1.99,-2.18 4.68,-5.1 8.01,-8.74 3.37,-3.64 7.76,-6.98 13.24,-10.02 14.43,9.9 26.13,15.45 35.1,16.63 8.98,1.2 17.84,-2.94 26.53,-12.42l242 -263.36c-6.19,-13.75 -16.6,-28.01 -31.22,-42.8 8.02,-8.74 14.78,-14.64 20.26,-17.66l242.6 222.9z"/>
  <path class="fil0" d="M2118.83 8798.67l111.53 73.47 61.36 -217.26 -22.31 21.73 -150.59 122.05zm-1.64 226.4c5.7,-8.69 11.58,-15.77 17.58,-21.3 23.37,9.49 41.38,14.52 54.01,15.14l31.89 -113.18 -128.88 -84.9 -95.9 78.14c6.37,11.88 20.04,25.32 40.96,40.3 -3.53,5.38 -9.4,12.48 -17.57,21.3l-121.44 -80.01c5.7,-8.68 11.56,-15.77 17.56,-21.3 25.87,11.11 49.03,9.2 69.54,-5.73l325.41 -256.57c16.34,4.86 36.72,15.3 61.1,31.36l-112 406.05c-4.3,15.55 -4.55,28.27 -0.71,38.18 3.83,9.93 12.68,20.07 26.62,30.43 -7.36,9.37 -13.44,16.34 -18.22,20.89l-149.95 -98.78z"/>
  <path class="fil0" d="M2646.99 9279.86l109.79 48.93c22.14,9.86 39.4,10.65 51.76,2.34 12.37,-8.28 26.04,-25.62 41.04,-51.98 3.82,1.17 8.2,2.85 13.18,5.06 4.98,2.22 9.87,5.2 14.68,8.97 -8.46,23.86 -16.55,44.48 -24.31,61.88 -7.75,17.39 -14.37,31.63 -19.87,42.73l-310.4 -138.32c1.01,-2.26 2.52,-5.65 4.54,-10.18 2,-4.51 5.12,-9.07 9.34,-13.69 16.37,4.6 28.83,6.08 37.41,4.48 8.55,-1.62 15.46,-8.28 20.7,-20.03l146.19 -328.05c-10.25,-11.05 -24.65,-21.27 -43.22,-30.63 4.83,-10.84 9.36,-18.58 13.59,-23.18l300.94 134.1c-4,10.15 -9.85,23.91 -17.61,41.3 -7.76,17.41 -17.92,36.57 -30.49,57.49 -3.57,-0.5 -12.58,-3.98 -27.04,-10.41 9.62,-27.68 13.44,-48.72 11.49,-63.14 -1.98,-14.4 -13.83,-26.45 -35.5,-36.11l-103.7 -46.2 -73.69 165.37 107.77 40.72 23.04 10.26 -18.13 40.67 -23.02 -10.26 -103.26 -50.89 -75.2 168.78z"/>
  <path class="fil0" d="M3259.28 9505.1l124.01 33.18c22.45,6.02 39.07,4.19 49.85,-5.47 10.79,-9.67 21.08,-28.03 30.87,-55.11 9.08,2.44 17.31,5.14 24.71,8.14 -4.4,25.97 -8.88,47.55 -13.49,64.76 -4.6,17.19 -8.62,31.24 -12.03,42.1l-329.74 -88.25c0.18,-2.51 0.89,-6.16 2.17,-10.94 1.27,-4.79 3.89,-9.7 7.8,-14.81 16.88,1.95 29.43,1.48 37.64,-1.44 8.2,-2.93 13.98,-10.61 17.29,-23.04l92.85 -346.93c-11.84,-9.32 -27.44,-17.08 -46.77,-23.27 0.38,-1.41 1.13,-4.18 2.21,-8.23 1.09,-4.06 3.37,-9.73 6.86,-17l164.14 43.93c-0.17,2.51 -0.89,6.16 -2.17,10.95 -1.28,4.78 -3.81,9.48 -7.6,14.08 -16.29,-2.3 -28.56,-1.87 -36.83,1.29 -8.27,3.16 -14.07,10.96 -17.4,23.38l-94.38 352.67z"/>
  <path class="fil0" d="M5078.44 9599.12l126.24 -23.3c22.85,-4.22 37.09,-13 42.67,-26.36 5.59,-13.36 6.99,-34.37 4.21,-63.03 9.24,-1.71 17.85,-2.79 25.81,-3.25 7.19,25.34 12.4,46.74 15.63,64.26 3.23,17.5 5.64,31.91 7.22,43.18l-335.67 61.95c-0.93,-2.34 -1.85,-5.94 -2.74,-10.82 -0.9,-4.87 -0.66,-10.43 0.68,-16.71 16.09,-5.48 27.21,-11.31 33.37,-17.48 6.15,-6.18 8.06,-15.58 5.74,-28.24l-65.2 -353.16c-14.7,-3.34 -32.12,-3.64 -52.23,-0.93 -0.27,-1.44 -0.78,-4.25 -1.55,-8.39 -0.76,-4.13 -1.14,-10.24 -1.11,-18.28l167.09 -30.85c0.95,2.34 1.86,5.95 2.75,10.82 0.9,4.88 0.63,10.2 -0.82,15.99 -15.68,4.92 -26.59,10.58 -32.68,17 -6.12,6.41 -8.02,15.94 -5.69,28.58l66.27 359.01z"/>
  <path class="fil0" d="M5591.65 9092.86l112.39 341.09c15.5,1.14 32.54,-0.82 51.18,-5.92 0.46,1.41 1.32,3.99 2.56,7.74 1.23,3.76 2.55,10.1 3.92,19.04l-161.37 53.17c-0.78,-2.36 -1.94,-5.87 -3.49,-10.59 -1.55,-4.69 -2.31,-10.17 -2.3,-16.41 15.21,-7.61 25.43,-14.88 30.71,-21.83 5.24,-6.94 5.88,-16.53 1.85,-28.75l-112.39 -341.1c-15.01,-1.29 -32.54,0.83 -52.58,6.4 -3.72,-11.27 -5.57,-20.05 -5.54,-26.3l161.38 -53.18c4.03,12.23 6.1,20.91 6.25,26.07 -15.34,7.15 -25.62,14.32 -30.79,21.49 -5.19,7.19 -5.78,16.88 -1.76,29.11z"/>
  <path class="fil0" d="M5837.19 8965.7c-5.06,-6.88 -8.48,-12.08 -10.25,-15.62 -1.76,-3.54 -2.74,-6.09 -2.97,-7.64l151.51 -75.31c3.75,4.21 8.38,11.87 13.88,22.93 -17.93,11.69 -27.86,20.34 -29.76,25.99 -1.89,5.65 -1.8,10.56 0.31,14.77 2.09,4.19 5.79,8.85 11.07,13.96l202.98 185.01c13.92,12.42 25.08,24.29 33.43,35.59l2.66 -1.34 -36.33 -353.15c-15.92,1.26 -33.07,5.67 -51.46,13.14 -5.5,-11.06 -8.78,-19.37 -9.89,-24.91l117.62 -58.46c4.18,10.63 6.8,19.27 7.9,25.91 -21.05,15.44 -30.5,34.77 -28.36,58.02l37.81 427.83 -24.59 12.23 -345.72 -308.78c-13.06,1.52 -26.33,4.81 -39.85,9.86z"/>
  <path class="fil0" d="M6759.7 8903.83l97.41 -70.45c19.63,-14.19 28.97,-28.73 27.99,-43.6 -0.98,-14.85 -9.12,-35.38 -24.4,-61.56 2.94,-2.72 6.58,-5.69 11.01,-8.87 4.41,-3.2 9.45,-5.92 15.13,-8.2 16.38,19.28 30.15,36.65 41.33,52.07 11.15,15.44 20.15,28.31 27,38.61l-275.37 199.16c-1.44,-1.99 -3.62,-5 -6.53,-9.02 -2.89,-4.01 -5.27,-8.99 -7.17,-14.95 12.19,-11.86 19.74,-21.9 22.64,-30.1 2.91,-8.22 0.59,-17.54 -6.94,-27.97l-210.47 -291c-14.7,3.31 -30.76,10.64 -48.18,22.02 -6.95,-9.62 -11.38,-17.42 -13.25,-23.38l266.97 -193.08c6.78,8.54 15.73,20.52 26.91,35.94 11.15,15.44 22.64,33.86 34.43,55.22 -2.22,2.82 -9.74,8.89 -22.57,18.17 -19.11,-22.21 -35.39,-36.07 -48.85,-41.6 -13.47,-5.52 -29.83,-1.32 -49.06,12.59l-91.98 66.53 106.1 146.7 89.28 -72.81 20.43 -14.79 26.1 36.08 -20.44 14.78 -95.8 63.81 108.27 149.71z"/>
  <path class="fil0" d="M7007.56 8224.9l248.03 259.74c14.46,-5.61 29.03,-14.73 43.66,-27.32 1.02,1.08 2.91,3.04 5.64,5.9 2.73,2.85 6.63,8.01 11.71,15.49l-122.88 117.35c-1.71,-1.78 -4.28,-4.48 -7.7,-8.06 -3.41,-3.56 -6.45,-8.17 -9.12,-13.84 10.46,-13.39 16.56,-24.37 18.34,-32.91 1.78,-8.54 -1.79,-17.44 -10.67,-26.75l-248.02 -259.74c-14.12,5.27 -29.04,14.73 -44.74,28.35 -8.19,-8.58 -13.64,-15.71 -16.3,-21.37l122.88 -117.36c8.88,9.31 14.5,16.28 16.86,20.86 -10.8,13.05 -17,23.93 -18.61,32.65 -1.6,8.71 2.04,17.71 10.93,27.01z"/>
  <path class="fil0" d="M7414.19 8005.74l33.94 -43.18c38.83,-49.37 34.03,-93.1 -14.38,-131.17 -48.41,-38.06 -92.04,-32.4 -130.88,16.99l-33.93 43.16 145.25 114.21zm348.28 -92.42c8.57,6.73 15.54,13.46 20.92,20.2l-63.75 81.1 -197.23 -40.87c-13.01,-2.66 -23.62,-2.98 -31.82,-0.95 -8.21,2.05 -16.76,8.7 -25.63,19.99l-25.68 32.67 135.34 106.39c19.07,-11.43 35.45,-24.69 49.15,-39.7 1.16,0.92 3.31,2.6 6.42,5.04 3.1,2.45 7.72,7.01 13.8,13.68l-111.9 142.32c-1.94,-1.52 -4.87,-3.82 -8.76,-6.89 -3.88,-3.05 -7.54,-7.19 -11,-12.4 8.46,-14.77 12.96,-26.47 13.49,-35.17 0.53,-8.7 -4.23,-17.04 -14.35,-24.98l-281.74 -221.5c-14.54,8.07 -28.16,19.38 -40.87,33.95 -9.33,-7.33 -15.71,-13.63 -19.15,-18.85l117.85 -149.91c31.19,-39.68 64.03,-63.42 98.5,-71.24 34.46,-7.83 66.65,0.04 96.61,23.58 22.56,17.74 36.91,39.09 43.07,64.06 6.16,24.98 2.87,51.99 -9.86,80.98 13.7,-6.22 33.16,-6.96 58.39,-2.24l117.22 21.39c18.44,3.78 32.58,4.2 42.44,1.25 9.87,-2.94 19.37,-10.25 28.54,-21.91z"/>
  <path class="fil0" d="M7834.19 7492.32l63.67 -117.41 -221.71 -42.56 23.57 20.37 134.47 139.6zm225.72 -17.73c-9.14,-4.95 -16.71,-10.19 -22.72,-15.68 7.44,-24.1 10.92,-42.46 10.45,-55.11l-115.47 -22.1 -73.58 135.67 86.04 88.86c11.3,-7.36 23.53,-22.12 36.67,-44.26 5.66,3.07 13.22,8.3 22.72,15.68l-69.34 127.85c-9.13,-4.94 -16.69,-10.18 -22.72,-15.69 8.87,-26.71 4.97,-49.64 -11.66,-68.78l-283.45 -302.28c3.43,-16.7 12.09,-37.89 26.01,-63.55l414.14 76.87c15.84,2.97 28.54,2.11 38.1,-2.56 9.57,-4.66 18.92,-14.35 28.05,-29.12 9.95,6.53 17.42,11.99 22.37,16.35l-85.6 157.85z"/>
  <path class="fil0" d="M1656.59 5813.99l0 -640.76c101.32,0 173.84,-13.51 217.61,-40.59 43.74,-27.05 65.62,-78 65.62,-152.85l0 -873.9c0,-76 -21.87,-127.52 -65.62,-154.58 -43.76,-27.06 -116.29,-40.6 -217.61,-40.6l0 -640.75 1828.98 0c169.24,0 311.75,16.69 427.45,50.08 115.72,33.4 208.4,81.17 278.06,143.35 69.65,62.19 119.17,136.45 148.54,222.8 29.36,86.35 44.03,182.49 44.03,288.42 0,193.44 -46.63,348.01 -139.88,463.73 -93.27,115.71 -242.38,178.18 -447.33,187.39l0 20.73c99.03,6.91 181.07,25.32 246.12,55.25 65.05,29.94 116.29,68.79 153.71,116.59 37.43,47.79 63.91,105.34 79.44,172.7 15.55,67.35 23.31,143.64 23.31,228.85l0 91.54c0,28.78 7.48,53.81 22.45,75.12 14.96,21.3 37.99,31.96 69.09,31.96 33.39,0 57,-10.66 70.81,-31.96 13.81,-21.31 20.73,-46.34 20.73,-75.12l0 -438.67 198.61 0 0 438.67c0,82.89 -12.38,159.18 -37.13,228.83 -24.75,69.66 -65.34,130.4 -121.75,182.21 -56.42,51.81 -130.69,91.83 -222.81,120.04 -92.12,28.21 -205.53,42.31 -340.23,42.31 -134.72,0 -244.97,-14.68 -330.74,-44.03 -85.78,-29.37 -152.85,-69.96 -201.21,-121.77 -48.35,-51.81 -82.03,-111.99 -101.03,-180.48 -19,-68.5 -28.49,-140.76 -28.49,-216.75l0 -132.99c0,-92.11 -5.18,-166.66 -15.55,-223.66 -10.37,-56.99 -27.35,-101.33 -50.95,-132.99 -23.61,-31.65 -54.41,-52.67 -92.41,-63.04 -37.98,-10.35 -84.05,-15.55 -138.16,-15.55l-41.44 0 0 246.98c0,61.02 16.97,105.07 50.95,132.12 33.96,27.07 94.69,40.59 182.2,40.59l0 640.76 -1535.37 0zm1302.22 -1366.13l151.97 0c96.72,0 163.22,-23.31 199.49,-69.95 36.26,-46.63 54.39,-111.4 54.39,-194.29 0,-96.73 -18.13,-166.37 -54.39,-208.98 -36.27,-42.6 -102.78,-63.91 -199.49,-63.91l-151.97 0 0 537.13z"/>
  <path class="fil0" d="M4326.77 5456.73c0,-222.23 36.56,-417.1 109.68,-584.62 73.11,-167.54 176.45,-307.72 310.02,-420.56 133.56,-112.83 292.17,-197.45 475.82,-253.88 183.64,-56.42 386.57,-84.63 608.79,-84.63 221.07,0 423.72,28.21 607.95,84.63 184.21,56.43 342.81,141.05 475.79,253.88 132.99,112.84 236.03,253.03 309.15,420.56 73.12,167.52 109.67,362.39 109.67,584.62 0,221.06 -36.55,415.35 -109.67,582.89 -73.12,167.53 -176.16,308.01 -309.15,421.4 -132.98,113.42 -291.58,198.33 -475.79,254.75 -184.23,56.41 -386.88,84.63 -607.95,84.63 -222.22,0 -425.14,-28.22 -608.79,-84.63 -183.64,-56.42 -342.26,-141.33 -475.82,-254.75 -133.57,-113.4 -236.91,-253.88 -310.02,-421.4 -73.12,-167.54 -109.68,-361.83 -109.68,-582.89zm1160.6 0c0,139.32 5.18,255.88 15.56,349.72 10.35,93.85 28.49,169.84 54.4,227.99 25.89,58.15 60.73,100.18 104.47,126.08 43.76,25.9 100.18,38.86 169.26,38.86 65.63,0 120.89,-12.96 165.81,-38.86 44.89,-25.9 80.3,-67.93 106.21,-126.08 25.91,-58.14 44.04,-134.13 54.4,-227.99 10.36,-93.84 15.55,-210.4 15.55,-349.72 0,-137.02 -5.18,-253.31 -15.55,-348.88 -10.36,-95.56 -28.49,-172.13 -54.4,-229.7 -25.91,-57.57 -61.32,-99.31 -106.21,-125.23 -44.92,-25.89 -100.18,-38.86 -165.81,-38.86 -69.08,0 -125.5,12.97 -169.26,38.86 -43.74,25.92 -78.59,67.66 -104.47,125.23 -25.91,57.56 -44.05,134.13 -54.4,229.7 -10.37,95.57 -15.56,211.86 -15.56,348.88z"/>
  <path class="fil0" d="M2322.31 7651.96c-34.49,43.23 -75.85,64.87 -124.04,64.87 -48.22,0 -89.18,-20.46 -122.91,-61.3 -33.71,-40.85 -50.55,-96.07 -50.55,-165.67 0,-69.6 18.42,-126.25 55.25,-169.97 36.85,-43.69 82.13,-65.53 135.85,-65.53 39.17,0 71.73,7.62 97.59,22.81 -0.78,34.19 -4.29,68.63 -10.57,103.3 -10.6,0 -16.47,-0.23 -17.64,-0.69 -0.78,-25.65 -7.56,-46.21 -20.29,-61.64 -12.72,-15.43 -29.7,-23.16 -50.87,-23.16 -37.61,0 -68,16.98 -91.11,50.93 -23.14,33.98 -34.7,80.17 -34.7,138.61 0,58.43 11.84,103.68 35.57,135.73 23.71,32.09 53.51,48.12 89.37,48.12 35.86,0 67.72,-11.41 95.55,-34.22l13.5 17.82z"/>
  <path class="fil0" d="M2461.69 7471.7l43.5 0c49.8,0 74.7,-29.59 74.7,-88.74 0,-59.11 -24.89,-88.7 -74.7,-88.7l-43.5 0 0 177.44zm228.16 208.06c0,10.46 -0.81,19.71 -2.37,27.78l-81.73 0 -71.14 -173.17c-4.71,-11.37 -9.69,-19.58 -14.97,-24.59 -5.31,-4.96 -13.63,-7.47 -25.01,-7.47l-32.93 0 0 165.32c16.45,7.61 32.74,12.12 48.81,13.56 0,1.4 0,4.02 0,7.81 0,3.82 -0.59,10 -1.78,18.54l-143.46 0c0,-2.36 0,-5.95 0,-10.69 0,-4.74 0.78,-9.97 2.35,-15.65 13.32,-2.39 22.83,-5.95 28.51,-10.72 5.7,-4.74 8.54,-13.3 8.54,-25.62l0 -344.2c-12.16,-6.18 -25.86,-9.74 -41.18,-10.69 0,-11.4 0.78,-19.93 2.35,-25.65l151.14 0c39.98,0 70.85,10.69 92.61,32.06 21.76,21.41 32.61,50.36 32.61,86.93 0,27.58 -6.26,51.08 -18.81,70.55 -12.54,19.48 -30.96,33.04 -55.26,40.63 10.57,6.66 20.58,20.91 29.99,42.75l44.09 101.2c6.66,16.15 13.32,27.09 20.01,32.78 6.66,5.71 15.86,8.56 27.65,8.56z"/>
  <path class="fil0" d="M2818.04 7676.92l95.24 0c19.23,0 31.98,-6.06 38.24,-18.18 6.26,-12.1 10.57,-32.66 12.92,-61.65 3.16,-0.46 6.88,-0.69 11.19,-0.69 4.31,0 8.81,0.69 13.51,2.12 1.56,24.22 2.37,45.48 2.37,63.78 0,18.3 -0.19,33.38 -0.59,45.24l-269.31 0c0,-2.36 0,-5.95 0,-10.69 0,-4.74 0.78,-9.97 2.35,-15.65 13.31,-2.39 22.82,-5.95 28.51,-10.72 5.69,-4.74 8.53,-13.3 8.53,-25.62l0 -344.92c-10.98,-5.71 -24.69,-9.02 -41.17,-9.97 0,-11.4 0.78,-19.93 2.35,-25.65l261.07 0c0.4,10.46 0.59,24.82 0.59,43.12 0,18.3 -1.18,39.07 -3.53,62.34 -2.72,0.98 -10.38,1.43 -22.92,1.43 -1.96,-28.03 -5.97,-48 -12.04,-59.86 -6.09,-11.86 -18.54,-17.82 -37.36,-17.82l-89.96 0 0 173.88 91.14 -6.41 19.99 0 0 42.75 -19.99 0 -91.14 -4.28 0 177.44z"/>
  <path class="fil0" d="M3126.74 7525.13l105.84 0 -54.09 -206.65 -5.31 29.21 -46.44 177.44zm97.62 182.42c0,-9.97 0.78,-18.76 2.35,-26.34 19.6,-4.77 33.71,-10.23 42.33,-16.4l-28.21 -107.61 -122.34 0 -29.36 113.33c9.39,6.18 24.29,9.71 44.68,10.69 0,6.17 -0.78,14.96 -2.35,26.34l-115.27 0c0,-9.97 0.81,-18.76 2.37,-26.34 21.95,-4.77 36.43,-18.54 43.5,-41.34l103.5 -377.67c12.94,-4.77 30.98,-7.16 54.09,-7.16l102.91 384.83c3.93,14.71 9.31,25.04 16.17,30.99 6.87,5.94 17.15,9.37 30.88,10.34 -0.78,11.37 -1.76,20.16 -2.94,26.34l-142.3 0z"/>
  <polygon class="fil0" points="3533.64,7198.77 3580.08,7198.77 3466.61,7743.19 3420.16,7743.19 "/>
  <path class="fil0" d="M4122.25 7707.55l-142.89 0c-0.4,-4.75 -0.61,-9.26 -0.61,-13.53 0,-4.28 0.21,-8.54 0.61,-12.81 14.1,-2.39 24.7,-6.06 31.74,-11.06 7.07,-4.99 10.4,-13.41 10.01,-25.28l-12.95 -320.67 -18.82 61.27 -105.84 322.08 -17.05 0 -114.65 -387.64 -20.6 352.73c10.19,4.75 24.69,7.59 43.52,8.57 -0.4,6.63 -1.37,15.43 -2.94,26.34l-119.37 0c0.8,-11.86 1.78,-20.66 2.93,-26.34 27.46,-4.77 41.56,-17.85 42.34,-39.21l18.82 -343.45c-9.79,-4.77 -20.2,-7.38 -31.17,-7.85 -0.38,-2.84 -0.57,-6.78 -0.57,-11.78 0,-4.97 0.97,-9.85 2.91,-14.6l101.74 0 95.27 325.64 105.84 -325.64 98.21 0c1.16,5.72 1.76,10.81 1.76,15.32 0,4.51 0,7.98 0,10.33 -10.57,1.44 -18.42,5 -23.51,10.69 -5.1,5.71 -7.47,14.96 -7.07,27.8l18.82 343.46c12.92,5.22 27.45,8.3 43.52,9.28 0.38,4.27 0.57,8.53 0.57,12.81 0,4.27 -0.19,8.78 -0.57,13.53z"/>
  <path class="fil0" d="M4440.36 7264.32c1.57,15.2 2.35,31.35 2.35,48.46 0,17.1 -0.57,34.67 -1.76,52.72 -4.31,1.92 -8.25,2.84 -11.78,2.84 -3.51,0 -6.26,-0.23 -8.23,-0.69 -1.56,-27.55 -6.26,-46.68 -14.1,-57.37 -7.85,-10.69 -20.57,-16.03 -38.21,-16.03l-45.87 0 0 376.26c14.1,6.18 30.95,9.71 50.55,10.69 0.4,2.84 0.59,6.51 0.59,11.02 0,4.51 -0.8,9.62 -2.37,15.32l-156.99 0c-0.38,-2.36 -0.59,-5.95 -0.59,-10.69 0,-4.74 1,-9.97 2.96,-15.65 18.42,-2.39 31.06,-5.95 37.91,-10.72 6.87,-4.74 10.3,-13.3 10.3,-25.62l0 -350.61 -45.87 0c-17.66,0 -30.39,5.34 -38.21,16.03 -7.85,10.69 -12.56,29.82 -14.13,57.37 -2.34,0.46 -5.31,0.69 -8.81,0.69 -3.53,0 -7.25,-0.92 -11.16,-2.84 -1.18,-14.25 -1.78,-29.68 -1.78,-46.31 0,-16.63 0.78,-34.9 2.34,-54.87l292.85 0z"/>
  <path class="fil0" d="M4508.4 9230.18c34.12,-1.56 65.35,7.02 93.7,25.61 30.7,20.05 54.79,46.74 72.19,80.17 17.41,33.45 26.98,72.69 28.82,117.63 2.85,69.57 -12.66,127.2 -46.63,172.77 -33.97,45.46 -78.63,69.52 -134.05,72.06 -61.84,2.82 -111.85,-21.35 -150.05,-72.41 -31.3,-41.69 -48.14,-92.5 -50.58,-152.41 -1.83,-44.5 4.87,-84.82 20.07,-120.98 15.11,-36.04 37.57,-65.08 67.27,-87 29.71,-21.92 62.85,-33.79 99.25,-35.44zm1.35 35.29c-27.98,1.28 -51.63,10.15 -71.12,26.49 -19.39,16.34 -34.57,39.82 -45.51,70.33 -10.84,30.62 -15.35,67.96 -13.55,112 1.72,42.07 9.13,77.51 22.22,106.26 13.18,28.74 30.09,50.43 50.76,65.04 20.77,14.61 43.68,21.35 68.74,20.2 24.88,-1.14 46.61,-9.81 65.19,-25.89 18.59,-16.08 33.43,-40.77 44.62,-74.08 11.19,-33.3 16.01,-69.87 14.37,-109.93 -1.66,-40.61 -9.49,-77.37 -23.39,-110.54 -11.89,-28.47 -27.03,-49.23 -45.34,-62.17 -18.31,-13.06 -40.64,-18.93 -66.98,-17.73z"/>
  <path class="fil0" d="M5697.13 191.09c32.87,9.26 59.81,27.22 80.87,53.8 22.82,28.69 37.29,61.61 43.28,98.83 6,37.22 2.73,77.49 -9.66,120.71 -19.2,66.93 -52.05,116.74 -98.63,149.31 -46.56,32.46 -96.51,41.24 -149.92,26.2 -59.58,-16.77 -99.44,-55.46 -119.63,-115.93 -16.58,-49.44 -16.57,-102.95 -0.04,-160.61 12.27,-42.8 31.32,-78.97 57.12,-108.5 25.69,-29.45 56.14,-49.95 91.24,-61.4 35.11,-11.47 70.29,-12.28 105.37,-2.41zm-9.83 33.92c-26.97,-7.59 -52.19,-6.63 -75.84,2.75 -23.55,9.4 -45.33,26.91 -65.33,52.43 -19.93,25.65 -35.98,59.66 -48.13,102.05 -11.61,40.46 -15.72,76.44 -12.36,107.84 3.46,31.44 12.7,57.35 27.73,77.72 15.1,20.4 34.72,34.01 58.88,40.81 23.96,6.74 47.33,5.36 70.03,-4.06 22.69,-9.41 44.56,-28.18 65.67,-56.27 21.1,-28.08 37.19,-61.27 48.25,-99.81 11.2,-39.07 15.35,-76.43 12.57,-112.28 -2.31,-30.77 -10.16,-55.23 -23.46,-73.29 -13.27,-18.16 -32.61,-30.76 -58,-37.9z"/>
  <path class="fil0" d="M4733.62 7229.33c35,0 65.18,9.53 90.46,28.49 25.29,18.96 45.1,46.16 59.42,81.7 14.32,35.42 21.44,80.63 21.44,135.62 0,61.91 -6.53,109.61 -19.71,143.13 -14.9,37.93 -35,66.55 -60.28,85.88 -25.38,19.33 -56.43,28.99 -93.35,28.99 -35.96,0 -66.23,-9.43 -91.04,-28.15 -24.7,-18.73 -44.32,-46.4 -58.84,-83.02 -14.51,-36.74 -21.72,-83.37 -21.72,-140.27 0,-57.01 7.22,-103.65 21.63,-139.79 14.33,-36.13 34.33,-64.05 60,-83.49 25.56,-19.43 56.23,-29.09 92,-29.09zm73.84 252.01c0,-63.81 -7.6,-110.09 -22.89,-138.71 -13.55,-24.93 -31.34,-37.46 -53.35,-37.46 -20.38,0 -37.4,13.13 -51.25,39.48 -13.84,26.36 -20.77,71.92 -20.77,136.69 0,64.89 6.93,110.33 20.87,136.57 13.94,26.24 31.43,39.36 52.59,39.36 21.24,0 39.03,-13.48 53.35,-40.44 14.32,-26.84 21.45,-72.04 21.45,-135.5z"/>
  <path id="_1" class="fil0" d="M5022.7 7394.64l-58.26 0c0,-5.37 0,-9.78 0,-13.25 0,-30.05 5.49,-56.05 16.43,-77.77 10.97,-21.82 28.18,-39.6 51.54,-53.56 23.35,-13.82 50.08,-20.74 80.08,-20.74 28.55,0 54.13,6.2 76.82,18.6 22.78,12.53 39.71,28.5 50.85,48.07 11.15,19.44 16.73,39.6 16.73,60.36 0,16.22 -3.46,32.2 -10.38,47.95 -7.02,15.62 -16.34,28.98 -28.17,39.95 -7.89,7.16 -19.61,14.55 -35.19,21.94 14.23,1.91 26.83,6.09 37.98,12.77 11.14,6.67 20.86,15.02 29.13,25.16 8.16,10.15 14.32,21.6 18.46,34.36 4.04,12.88 6.06,26.72 6.06,41.62 0,26.84 -6.35,51.89 -19.14,75.14 -12.78,23.26 -31.82,42.11 -57.01,56.42 -25.18,14.32 -54.41,21.48 -87.68,21.48 -32.49,0 -61.42,-6.8 -86.81,-20.28 -25.39,-13.47 -44.51,-30.66 -57.3,-51.29 -12.79,-20.76 -19.14,-41.39 -19.14,-61.91 0,-15.51 4.52,-28.99 13.46,-40.07 9.04,-11.21 19.91,-16.82 32.69,-16.82 12.21,0 22.98,5.24 32.29,15.74 6.06,6.68 11.15,18.25 15.49,34.58 5.48,21.23 10.38,35.19 14.81,42.11 4.42,6.8 11.53,13 21.54,18.37 9.9,5.37 19.99,7.99 30.38,7.99 12.01,0 23.55,-3.58 34.7,-10.86 11.15,-7.27 19.32,-16.34 24.61,-27.43 5.29,-11.09 7.89,-24.46 7.89,-40.08 0,-28.74 -8.94,-49.85 -26.73,-63.34 -13.75,-10.49 -35.09,-15.74 -63.93,-15.74l-18.36 0 0 -67.26 18.36 0c22.88,0 39.31,-2.03 49.12,-6.21 9.9,-4.18 17.6,-11.21 23.26,-21.11 5.68,-9.78 8.46,-20.39 8.46,-31.72 0,-15.51 -4.71,-28.87 -14.04,-39.95 -11.82,-14.2 -29.9,-21.23 -54.13,-21.23 -16.15,0 -29.41,2.98 -39.8,9.06 -10.48,5.96 -18.64,14.55 -24.51,25.52 -5.97,11.09 -9.43,25.52 -10.58,43.42z"/>
  <path id="_2" class="fil0" d="M5571.64 7454.15c29.04,14.19 51.34,33.52 67.11,57.97 12.41,18.84 18.56,42.22 18.56,70.14 0,42.7 -13.56,77.65 -40.66,105.2 -30.28,30.42 -70.86,45.69 -121.81,45.69 -34.13,0 -63.54,-6.45 -88.35,-19.21 -24.8,-12.76 -43.36,-29.23 -55.57,-49.38 -12.21,-20.15 -18.36,-40.91 -18.36,-62.38 0,-22.31 6.63,-43.66 19.9,-63.81 13.36,-20.28 34.12,-37.58 62.39,-51.77 -23.55,-13.24 -41.24,-30.3 -53.06,-51.29 -11.82,-20.99 -17.7,-44.02 -17.7,-69.18 0,-24.81 5.58,-47.48 16.83,-67.63 11.15,-20.28 28.55,-36.85 52.11,-49.86 23.64,-12.87 50.75,-19.31 81.32,-19.31 38.75,0 71.91,10.37 99.61,31.24 27.59,20.88 41.42,49.14 41.42,85.04 0,20.88 -4.61,40.07 -13.94,57.37 -9.33,17.41 -25.96,34.47 -49.8,51.17zm-53.83 -29.82l10.48 -14.43c6.73,-8.83 11.24,-15.75 13.55,-20.64 3.37,-6.8 5.77,-13 7.21,-18.72 1.44,-5.72 2.12,-11.57 2.12,-17.42 0,-12.53 -5.29,-23.73 -15.96,-33.39 -10.67,-9.66 -25.57,-14.56 -44.6,-14.56 -18.27,0 -32.5,4.54 -42.6,13.48 -10.09,9.06 -15.09,19.44 -15.09,31.37 0,10.5 2.99,19.44 9.04,26.96 8.17,10.02 22.98,20.52 44.42,31.61l31.44 15.74zm-47.78 94.94c-18.26,11.69 -31.62,24.21 -40.28,37.58 -8.65,13.47 -12.98,26.35 -12.98,38.76 0,9.78 2.98,19.56 8.84,29.23 5.86,9.78 14.81,17.53 26.73,23.49 12.02,5.97 26.05,8.95 42.11,8.95 15.96,0 30,-2.74 42.2,-8.23 12.11,-5.49 20.77,-12.29 25.86,-20.27 5.09,-8.11 7.7,-16.82 7.7,-26.13 0,-11.69 -3.28,-21.35 -9.72,-29.1 -9.23,-11.21 -25.28,-22.42 -48.06,-33.64l-42.4 -20.64z"/>
  <path id="_3" class="fil0" d="M5745.85 7222.89l37.2 0 3.95 15.03 262.64 0 0 67.37c-25,30.06 -45.19,58.33 -60.47,84.93 -15.28,26.59 -29.51,57.6 -42.58,93.15 -13.09,35.42 -22.79,68.81 -29.14,99.83 -6.44,31.13 -12.11,78.49 -17.2,142.06l-100.95 0c4.52,-57.61 12.12,-105.68 22.79,-143.97 10.67,-38.4 27.88,-79.92 51.53,-124.64 23.65,-44.73 48.54,-82.78 74.79,-114.27l-128.04 0c-16.34,0 -27.02,1.19 -32.11,3.45 -5.1,2.39 -9.14,6.09 -12.12,11.21 -2.98,5.13 -6.35,16.7 -10.1,34.71l-5.95 28.27 -53.64 -15.62 39.41 -181.53z"/>
  <path id="_4" class="fil0" d="M6333.25 7454.15c29.04,14.19 51.33,33.52 67.1,57.97 12.41,18.84 18.56,42.22 18.56,70.14 0,42.7 -13.56,77.65 -40.66,105.2 -30.28,30.42 -70.86,45.69 -121.81,45.69 -34.13,0 -63.54,-6.45 -88.35,-19.21 -24.8,-12.76 -43.36,-29.23 -55.57,-49.38 -12.21,-20.15 -18.36,-40.91 -18.36,-62.38 0,-22.31 6.63,-43.66 19.9,-63.81 13.36,-20.28 34.13,-37.58 62.39,-51.77 -23.55,-13.24 -41.24,-30.3 -53.06,-51.29 -11.82,-20.99 -17.69,-44.02 -17.69,-69.18 0,-24.81 5.58,-47.48 16.82,-67.63 11.15,-20.28 28.55,-36.85 52.11,-49.86 23.64,-12.87 50.75,-19.31 81.32,-19.31 38.75,0 71.91,10.37 99.61,31.24 27.59,20.88 41.42,49.14 41.42,85.04 0,20.88 -4.61,40.07 -13.94,57.37 -9.32,17.41 -25.96,34.47 -49.79,51.17zm-53.84 -29.82l10.48 -14.43c6.73,-8.83 11.25,-15.75 13.55,-20.64 3.37,-6.8 5.77,-13 7.22,-18.72 1.43,-5.72 2.11,-11.57 2.11,-17.42 0,-12.53 -5.29,-23.73 -15.96,-33.39 -10.67,-9.66 -25.56,-14.56 -44.6,-14.56 -18.27,0 -32.5,4.54 -42.6,13.48 -10.09,9.06 -15.09,19.44 -15.09,31.37 0,10.5 2.99,19.44 9.04,26.96 8.17,10.02 22.98,20.52 44.42,31.61l31.44 15.74zm-47.77 94.94c-18.27,11.69 -31.63,24.21 -40.29,37.58 -8.65,13.47 -12.98,26.35 -12.98,38.76 0,9.78 2.98,19.56 8.85,29.23 5.86,9.78 14.81,17.53 26.72,23.49 12.02,5.97 26.06,8.95 42.11,8.95 15.96,0 30.01,-2.74 42.2,-8.23 12.12,-5.49 20.77,-12.29 25.86,-20.27 5.09,-8.11 7.7,-16.82 7.7,-26.13 0,-11.69 -3.28,-21.35 -9.71,-29.1 -9.23,-11.21 -25.29,-22.42 -48.07,-33.64l-42.39 -20.64z"/>
  <path id="_5" class="fil0" d="M6507.44 7222.89l37.2 0 3.95 15.03 262.64 0 0 67.37c-25,30.06 -45.19,58.33 -60.47,84.93 -15.28,26.59 -29.51,57.6 -42.58,93.15 -13.08,35.42 -22.79,68.81 -29.14,99.83 -6.44,31.13 -12.11,78.49 -17.2,142.06l-100.95 0c4.52,-57.61 12.12,-105.68 22.79,-143.97 10.67,-38.4 27.88,-79.92 51.53,-124.64 23.65,-44.73 48.54,-82.78 74.79,-114.27l-128.04 0c-16.34,0 -27.01,1.19 -32.11,3.45 -5.1,2.39 -9.14,6.09 -12.12,11.21 -2.98,5.13 -6.35,16.7 -10.1,34.71l-5.95 28.27 -53.64 -15.62 39.41 -181.53z"/>
 </g>
</svg>
