<?xml version="1.0" encoding="UTF-8"?>
<!DOCTYPE svg PUBLIC "-//W3C//DTD SVG 1.1//EN" "http://www.w3.org/Graphics/SVG/1.1/DTD/svg11.dtd">
<!-- Creator: CorelDRAW 2021 (64-Bit) -->
<svg xmlns="http://www.w3.org/2000/svg" xml:space="preserve" width="69.4663mm" height="69.4663mm" version="1.1" style="shape-rendering:geometricPrecision; text-rendering:geometricPrecision; image-rendering:optimizeQuality; fill-rule:evenodd; clip-rule:evenodd"
viewBox="0 0 1011.97 1011.97"
 xmlns:xlink="http://www.w3.org/1999/xlink"
 xmlns:xodm="http://www.corel.com/coreldraw/odm/2003">
 <defs>
  <style type="text/css">
   <![CDATA[
    .str0 {stroke:white;stroke-width:15.42;stroke-linecap:round;stroke-linejoin:round;stroke-miterlimit:22.9256}
    .fil1 {fill:none}
    .fil0 {fill:white;fill-rule:nonzero}
   ]]>
  </style>
 </defs>
 <g id="Layer_x0020_1">
  <metadata id="CorelCorpID_0Corel-Layer"/>
  <path class="fil0" d="M159.56 605.87l0 -82.58c13.06,0 22.41,-1.74 28.04,-5.23 5.64,-3.49 8.46,-10.05 8.46,-19.7l0 -112.63c0,-9.79 -2.82,-16.44 -8.46,-19.92 -5.64,-3.49 -14.99,-5.23 -28.04,-5.23l0 -82.58 235.71 0c21.81,0 40.18,2.15 55.09,6.45 14.91,4.3 26.86,10.46 35.84,18.47 8.98,8.01 15.36,17.58 19.14,28.71 3.78,11.13 5.67,23.52 5.67,37.17 0,24.93 -6.01,44.85 -18.03,59.76 -12.02,14.91 -31.24,22.96 -57.65,24.15l0 2.67c12.76,0.89 23.33,3.26 31.72,7.12 8.38,3.86 14.99,8.87 19.81,15.02 4.82,6.16 8.24,13.58 10.24,22.26 2,8.68 3.01,18.51 3.01,29.49l0 11.8c0,3.71 0.96,6.94 2.89,9.68 1.93,2.75 4.9,4.12 8.9,4.12 4.3,0 7.35,-1.37 9.13,-4.12 1.78,-2.74 2.67,-5.97 2.67,-9.68l0 -56.53 25.6 0 0 56.53c0,10.68 -1.6,20.52 -4.79,29.49 -3.19,8.98 -8.42,16.81 -15.69,23.48 -7.27,6.68 -16.84,11.83 -28.71,15.47 -11.87,3.64 -26.49,5.45 -43.85,5.45 -17.36,0 -31.57,-1.89 -42.63,-5.68 -11.05,-3.78 -19.7,-9.02 -25.93,-15.69 -6.23,-6.68 -10.57,-14.43 -13.02,-23.26 -2.45,-8.83 -3.67,-18.14 -3.67,-27.93l0 -17.14c0,-11.87 -0.67,-21.48 -2,-28.83 -1.34,-7.35 -3.52,-13.06 -6.57,-17.14 -3.04,-4.08 -7.01,-6.79 -11.91,-8.12 -4.89,-1.33 -10.83,-2 -17.81,-2l-5.34 0 0 31.83c0,7.86 2.19,13.54 6.57,17.03 4.38,3.49 12.2,5.23 23.48,5.23l0 82.58 -197.87 0zm167.83 -176.06l19.58 0c12.47,0 21.04,-3 25.71,-9.01 4.67,-6.01 7.01,-14.36 7.01,-25.04 0,-12.46 -2.34,-21.44 -7.01,-26.93 -4.67,-5.49 -13.25,-8.24 -25.71,-8.24l-19.58 0 0 69.22z"/>
  <path class="fil0" d="M503.69 559.83c0,-28.64 4.71,-53.75 14.13,-75.34 9.42,-21.59 22.74,-39.66 39.96,-54.2 17.21,-14.54 37.65,-25.45 61.32,-32.72 23.67,-7.27 49.82,-10.91 78.46,-10.91 28.49,0 54.61,3.63 78.35,10.91 23.74,7.27 44.18,18.18 61.32,32.72 17.14,14.54 30.42,32.61 39.84,54.2 9.42,21.59 14.13,46.7 14.13,75.34 0,28.49 -4.71,53.53 -14.13,75.12 -9.42,21.59 -22.7,39.7 -39.84,54.31 -17.14,14.62 -37.58,25.56 -61.32,32.83 -23.74,7.27 -49.86,10.91 -78.35,10.91 -28.64,0 -54.79,-3.64 -78.46,-10.91 -23.67,-7.27 -44.11,-18.22 -61.32,-32.83 -17.21,-14.61 -30.53,-32.72 -39.96,-54.31 -9.42,-21.59 -14.13,-46.63 -14.13,-75.12zm149.58 0c0,17.95 0.67,32.98 2,45.07 1.33,12.09 3.67,21.89 7.01,29.38 3.34,7.49 7.83,12.91 13.47,16.25 5.64,3.34 12.91,5.01 21.81,5.01 8.46,0 15.58,-1.67 21.37,-5.01 5.79,-3.34 10.35,-8.76 13.69,-16.25 3.34,-7.49 5.68,-17.29 7.01,-29.38 1.34,-12.09 2,-27.12 2,-45.07 0,-17.66 -0.67,-32.65 -2,-44.96 -1.33,-12.32 -3.67,-22.18 -7.01,-29.6 -3.34,-7.42 -7.9,-12.8 -13.69,-16.14 -5.79,-3.34 -12.91,-5.01 -21.37,-5.01 -8.9,0 -16.17,1.67 -21.81,5.01 -5.64,3.34 -10.13,8.72 -13.47,16.14 -3.34,7.42 -5.68,17.29 -7.01,29.6 -1.34,12.32 -2,27.3 -2,44.96z"/>
  <path class="fil0" d="M130.3 673.69c-2.63,4.18 -5.77,6.27 -9.44,6.27 -3.67,0 -6.79,-1.98 -9.36,-5.93 -2.57,-3.95 -3.85,-9.29 -3.85,-16.03 0,-6.73 1.4,-12.21 4.21,-16.44 2.81,-4.23 6.25,-6.34 10.34,-6.34 2.98,0 5.46,0.74 7.43,2.21 -0.06,3.31 -0.33,6.64 -0.8,9.99 -0.81,0 -1.25,-0.02 -1.34,-0.07 -0.06,-2.48 -0.58,-4.47 -1.54,-5.96 -0.97,-1.49 -2.26,-2.24 -3.87,-2.24 -2.86,0 -5.18,1.64 -6.94,4.93 -1.76,3.29 -2.64,7.76 -2.64,13.41 0,5.65 0.9,10.03 2.71,13.13 1.8,3.1 4.07,4.65 6.8,4.65 2.73,0 5.16,-1.1 7.28,-3.31l1.03 1.72z"/>
  <path class="fil0" d="M140.91 656.25l3.31 0c3.79,0 5.69,-2.86 5.69,-8.58 0,-5.72 -1.9,-8.58 -5.69,-8.58l-3.31 0 0 17.17zm17.37 20.13c0,1.01 -0.06,1.91 -0.18,2.69l-6.22 0 -5.41 -16.75c-0.36,-1.1 -0.74,-1.9 -1.14,-2.38 -0.4,-0.48 -1.04,-0.72 -1.9,-0.72l-2.51 0 0 15.99c1.25,0.74 2.49,1.17 3.72,1.31 0,0.14 0,0.39 0,0.76 0,0.37 -0.05,0.97 -0.14,1.79l-10.92 0c0,-0.23 0,-0.58 0,-1.03 0,-0.46 0.06,-0.96 0.18,-1.51 1.02,-0.23 1.74,-0.58 2.17,-1.04 0.43,-0.46 0.65,-1.29 0.65,-2.48l0 -33.3c-0.93,-0.6 -1.97,-0.94 -3.13,-1.03 0,-1.1 0.06,-1.93 0.18,-2.48l11.51 0c3.04,0 5.39,1.03 7.05,3.1 1.66,2.07 2.48,4.87 2.48,8.41 0,2.67 -0.48,4.94 -1.43,6.83 -0.96,1.88 -2.36,3.2 -4.21,3.93 0.81,0.65 1.57,2.02 2.28,4.14l3.36 9.79c0.51,1.56 1.02,2.62 1.52,3.17 0.51,0.55 1.21,0.83 2.1,0.83z"/>
  <path class="fil0" d="M168.04 676.1l7.25 0c1.46,0 2.43,-0.59 2.91,-1.76 0.48,-1.17 0.81,-3.16 0.98,-5.96 0.24,-0.04 0.52,-0.07 0.85,-0.07 0.33,0 0.67,0.07 1.03,0.21 0.12,2.34 0.18,4.4 0.18,6.17 0,1.77 -0.01,3.23 -0.05,4.38l-20.5 0c0,-0.23 0,-0.58 0,-1.03 0,-0.46 0.06,-0.96 0.18,-1.51 1.01,-0.23 1.74,-0.58 2.17,-1.04 0.43,-0.46 0.65,-1.29 0.65,-2.48l0 -33.37c-0.83,-0.55 -1.88,-0.87 -3.13,-0.96 0,-1.1 0.06,-1.93 0.18,-2.48l19.88 0c0.03,1.01 0.05,2.4 0.05,4.17 0,1.77 -0.09,3.78 -0.27,6.03 -0.21,0.09 -0.79,0.14 -1.75,0.14 -0.15,-2.71 -0.45,-4.64 -0.92,-5.79 -0.46,-1.15 -1.41,-1.72 -2.84,-1.72l-6.85 0 0 16.82 6.94 -0.62 1.52 0 0 4.14 -1.52 0 -6.94 -0.42 0 17.17z"/>
  <path class="fil0" d="M191.54 661.42l8.06 0 -4.12 -19.99 -0.4 2.83 -3.54 17.17zm7.43 17.65c0,-0.96 0.06,-1.82 0.18,-2.55 1.49,-0.46 2.57,-0.99 3.22,-1.59l-2.15 -10.41 -9.31 0 -2.24 10.96c0.72,0.6 1.85,0.94 3.4,1.03 0,0.6 -0.06,1.45 -0.18,2.55l-8.78 0c0,-0.96 0.06,-1.82 0.18,-2.55 1.67,-0.46 2.77,-1.79 3.31,-4l7.88 -36.53c0.99,-0.46 2.36,-0.69 4.12,-0.69l7.83 37.23c0.3,1.42 0.71,2.42 1.23,3 0.52,0.58 1.31,0.91 2.35,1 -0.06,1.1 -0.13,1.95 -0.22,2.55l-10.83 0z"/>
  <polygon class="fil0" points="222.52,629.85 226.05,629.85 217.41,682.51 213.88,682.51 "/>
  <path class="fil0" d="M267.33 679.06l-10.88 0c-0.03,-0.46 -0.05,-0.89 -0.05,-1.31 0,-0.41 0.02,-0.82 0.05,-1.24 1.07,-0.23 1.88,-0.59 2.42,-1.07 0.54,-0.48 0.79,-1.3 0.76,-2.44l-0.98 -31.02 -1.43 5.93 -8.06 31.16 -1.3 0 -8.73 -37.5 -1.57 34.12c0.78,0.46 1.88,0.73 3.31,0.83 -0.03,0.64 -0.1,1.49 -0.22,2.55l-9.09 0c0.06,-1.15 0.14,-2 0.22,-2.55 2.09,-0.46 3.16,-1.73 3.22,-3.79l1.43 -33.22c-0.74,-0.46 -1.54,-0.71 -2.37,-0.76 -0.03,-0.28 -0.04,-0.66 -0.04,-1.14 0,-0.48 0.07,-0.95 0.22,-1.41l7.75 0 7.25 31.5 8.06 -31.5 7.48 0c0.09,0.55 0.13,1.04 0.13,1.48 0,0.44 0,0.77 0,1 -0.8,0.14 -1.4,0.48 -1.79,1.03 -0.39,0.55 -0.57,1.45 -0.54,2.69l1.43 33.22c0.98,0.51 2.09,0.8 3.31,0.9 0.03,0.41 0.04,0.82 0.04,1.24 0,0.42 -0.01,0.85 -0.04,1.31z"/>
  <path class="fil0" d="M291.55 636.19c0.12,1.47 0.18,3.03 0.18,4.69 0,1.65 -0.04,3.35 -0.13,5.1 -0.33,0.19 -0.63,0.28 -0.9,0.28 -0.27,0 -0.48,-0.02 -0.63,-0.07 -0.12,-2.67 -0.48,-4.52 -1.07,-5.55 -0.6,-1.03 -1.57,-1.55 -2.91,-1.55l-3.49 0 0 36.4c1.07,0.6 2.36,0.94 3.85,1.03 0.03,0.28 0.05,0.63 0.05,1.07 0,0.44 -0.06,0.93 -0.18,1.48l-11.95 0c-0.03,-0.23 -0.05,-0.58 -0.05,-1.03 0,-0.46 0.08,-0.96 0.23,-1.51 1.4,-0.23 2.36,-0.58 2.89,-1.04 0.52,-0.46 0.79,-1.29 0.79,-2.48l0 -33.92 -3.49 0c-1.34,0 -2.31,0.52 -2.91,1.55 -0.6,1.03 -0.96,2.88 -1.08,5.55 -0.18,0.04 -0.4,0.07 -0.67,0.07 -0.27,0 -0.55,-0.09 -0.85,-0.28 -0.09,-1.38 -0.14,-2.87 -0.14,-4.48 0,-1.61 0.06,-3.38 0.18,-5.31l22.29 0z"/>
  <path class="fil0" d="M315.01 636.17c2.93,0 5.46,0.8 7.58,2.39 2.12,1.59 3.78,3.87 4.98,6.85 1.2,2.97 1.8,6.76 1.8,11.37 0,5.19 -0.55,9.19 -1.65,12 -1.25,3.18 -2.93,5.58 -5.05,7.2 -2.13,1.62 -4.73,2.43 -7.83,2.43 -3.01,0 -5.55,-0.79 -7.63,-2.36 -2.07,-1.57 -3.71,-3.89 -4.93,-6.96 -1.22,-3.08 -1.82,-6.99 -1.82,-11.76 0,-4.78 0.6,-8.69 1.81,-11.72 1.2,-3.03 2.88,-5.37 5.03,-7 2.14,-1.63 4.71,-2.44 7.71,-2.44zm6.19 21.12c0,-5.35 -0.64,-9.23 -1.92,-11.63 -1.14,-2.09 -2.63,-3.14 -4.47,-3.14 -1.71,0 -3.13,1.1 -4.3,3.31 -1.16,2.21 -1.74,6.03 -1.74,11.46 0,5.44 0.58,9.25 1.75,11.45 1.17,2.2 2.64,3.3 4.41,3.3 1.78,0 3.27,-1.13 4.47,-3.39 1.2,-2.25 1.8,-6.04 1.8,-11.36z"/>
  <path id="_1" class="fil0" d="M339.25 650.03l-4.88 0c0,-0.45 0,-0.82 0,-1.11 0,-2.52 0.46,-4.7 1.38,-6.52 0.92,-1.83 2.36,-3.32 4.32,-4.49 1.96,-1.16 4.2,-1.74 6.71,-1.74 2.39,0 4.54,0.52 6.44,1.56 1.91,1.05 3.33,2.39 4.26,4.03 0.94,1.63 1.4,3.32 1.4,5.06 0,1.36 -0.29,2.7 -0.87,4.02 -0.59,1.31 -1.37,2.43 -2.36,3.35 -0.66,0.6 -1.64,1.22 -2.95,1.84 1.19,0.16 2.25,0.51 3.18,1.07 0.94,0.56 1.75,1.26 2.44,2.11 0.68,0.85 1.2,1.81 1.55,2.88 0.34,1.08 0.51,2.24 0.51,3.49 0,2.25 -0.53,4.35 -1.6,6.3 -1.07,1.95 -2.67,3.53 -4.78,4.73 -2.11,1.2 -4.56,1.8 -7.35,1.8 -2.72,0 -5.15,-0.57 -7.28,-1.7 -2.13,-1.13 -3.73,-2.57 -4.8,-4.3 -1.07,-1.74 -1.6,-3.47 -1.6,-5.19 0,-1.3 0.38,-2.43 1.13,-3.36 0.76,-0.94 1.67,-1.41 2.74,-1.41 1.02,0 1.93,0.44 2.71,1.32 0.51,0.56 0.94,1.53 1.3,2.9 0.46,1.78 0.87,2.95 1.24,3.53 0.37,0.57 0.97,1.09 1.8,1.54 0.83,0.45 1.68,0.67 2.55,0.67 1.01,0 1.97,-0.3 2.91,-0.91 0.94,-0.61 1.62,-1.37 2.06,-2.3 0.44,-0.93 0.66,-2.05 0.66,-3.36 0,-2.41 -0.75,-4.18 -2.24,-5.31 -1.15,-0.88 -2.94,-1.32 -5.36,-1.32l-1.54 0 0 -5.64 1.54 0c1.92,0 3.3,-0.17 4.12,-0.52 0.83,-0.35 1.48,-0.94 1.95,-1.77 0.48,-0.82 0.71,-1.71 0.71,-2.66 0,-1.3 -0.39,-2.42 -1.18,-3.35 -0.99,-1.19 -2.51,-1.78 -4.54,-1.78 -1.35,0 -2.47,0.25 -3.34,0.76 -0.88,0.5 -1.56,1.22 -2.05,2.14 -0.5,0.93 -0.79,2.14 -0.89,3.64z"/>
  <path id="_2" class="fil0" d="M385.26 655.01c2.43,1.19 4.3,2.81 5.62,4.86 1.04,1.58 1.56,3.54 1.56,5.88 0,3.58 -1.14,6.51 -3.41,8.82 -2.54,2.55 -5.94,3.83 -10.21,3.83 -2.86,0 -5.33,-0.54 -7.41,-1.61 -2.08,-1.07 -3.63,-2.45 -4.66,-4.14 -1.02,-1.69 -1.54,-3.43 -1.54,-5.23 0,-1.87 0.56,-3.66 1.67,-5.35 1.12,-1.7 2.86,-3.15 5.23,-4.34 -1.97,-1.11 -3.46,-2.54 -4.45,-4.3 -0.99,-1.76 -1.48,-3.69 -1.48,-5.8 0,-2.08 0.47,-3.98 1.41,-5.67 0.94,-1.7 2.39,-3.09 4.37,-4.18 1.98,-1.08 4.26,-1.62 6.82,-1.62 3.25,0 6.03,0.87 8.35,2.62 2.31,1.75 3.47,4.12 3.47,7.13 0,1.75 -0.39,3.36 -1.17,4.81 -0.78,1.46 -2.17,2.89 -4.17,4.29zm-4.51 -2.5l0.88 -1.21c0.57,-0.74 0.94,-1.32 1.14,-1.73 0.28,-0.57 0.48,-1.09 0.6,-1.57 0.12,-0.48 0.18,-0.97 0.18,-1.46 0,-1.05 -0.44,-1.99 -1.34,-2.8 -0.89,-0.81 -2.14,-1.22 -3.74,-1.22 -1.53,0 -2.72,0.38 -3.57,1.13 -0.85,0.76 -1.27,1.63 -1.27,2.63 0,0.88 0.25,1.63 0.76,2.26 0.69,0.84 1.93,1.72 3.72,2.65l2.63 1.32zm-4 7.96c-1.53,0.98 -2.65,2.03 -3.38,3.15 -0.73,1.13 -1.09,2.21 -1.09,3.25 0,0.82 0.25,1.64 0.74,2.45 0.49,0.82 1.24,1.47 2.24,1.97 1.01,0.5 2.18,0.75 3.53,0.75 1.34,0 2.51,-0.23 3.54,-0.69 1.02,-0.46 1.74,-1.03 2.17,-1.7 0.43,-0.68 0.65,-1.41 0.65,-2.19 0,-0.98 -0.27,-1.79 -0.81,-2.44 -0.77,-0.94 -2.12,-1.88 -4.03,-2.82l-3.55 -1.73z"/>
  <path id="_3" class="fil0" d="M399.86 635.63l3.12 0 0.33 1.26 22.01 0 0 5.65c-2.09,2.52 -3.79,4.89 -5.07,7.12 -1.28,2.23 -2.48,4.83 -3.57,7.81 -1.1,2.97 -1.91,5.77 -2.44,8.37 -0.54,2.61 -1.02,6.58 -1.44,11.91l-8.46 0c0.38,-4.83 1.02,-8.86 1.91,-12.07 0.89,-3.22 2.34,-6.7 4.32,-10.45 1.98,-3.75 4.07,-6.94 6.27,-9.58l-10.73 0c-1.37,0 -2.27,0.1 -2.69,0.29 -0.43,0.2 -0.76,0.51 -1.01,0.94 -0.25,0.43 -0.53,1.4 -0.85,2.91l-0.5 2.37 -4.5 -1.31 3.3 -15.22z"/>
  <path id="_4" class="fil0" d="M449.1 655.01c2.43,1.19 4.3,2.81 5.62,4.86 1.04,1.58 1.56,3.54 1.56,5.88 0,3.58 -1.14,6.51 -3.41,8.82 -2.54,2.55 -5.94,3.83 -10.21,3.83 -2.86,0 -5.33,-0.54 -7.41,-1.61 -2.08,-1.07 -3.63,-2.45 -4.66,-4.14 -1.02,-1.69 -1.54,-3.43 -1.54,-5.23 0,-1.87 0.56,-3.66 1.67,-5.35 1.12,-1.7 2.86,-3.15 5.23,-4.34 -1.97,-1.11 -3.46,-2.54 -4.45,-4.3 -0.99,-1.76 -1.48,-3.69 -1.48,-5.8 0,-2.08 0.47,-3.98 1.41,-5.67 0.94,-1.7 2.39,-3.09 4.37,-4.18 1.98,-1.08 4.26,-1.62 6.82,-1.62 3.25,0 6.03,0.87 8.35,2.62 2.31,1.75 3.47,4.12 3.47,7.13 0,1.75 -0.39,3.36 -1.17,4.81 -0.78,1.46 -2.17,2.89 -4.17,4.29zm-4.51 -2.5l0.88 -1.21c0.57,-0.74 0.94,-1.32 1.14,-1.73 0.28,-0.57 0.49,-1.09 0.61,-1.57 0.12,-0.48 0.18,-0.97 0.18,-1.46 0,-1.05 -0.44,-1.99 -1.34,-2.8 -0.89,-0.81 -2.14,-1.22 -3.74,-1.22 -1.53,0 -2.72,0.38 -3.57,1.13 -0.85,0.76 -1.27,1.63 -1.27,2.63 0,0.88 0.25,1.63 0.76,2.26 0.69,0.84 1.93,1.72 3.72,2.65l2.63 1.32zm-4 7.96c-1.53,0.98 -2.65,2.03 -3.38,3.15 -0.73,1.13 -1.09,2.21 -1.09,3.25 0,0.82 0.25,1.64 0.74,2.45 0.49,0.82 1.24,1.47 2.24,1.97 1.01,0.5 2.18,0.75 3.53,0.75 1.34,0 2.51,-0.23 3.54,-0.69 1.02,-0.46 1.74,-1.03 2.17,-1.7 0.43,-0.68 0.65,-1.41 0.65,-2.19 0,-0.98 -0.27,-1.79 -0.81,-2.44 -0.77,-0.94 -2.12,-1.88 -4.03,-2.82l-3.55 -1.73z"/>
  <path id="_5" class="fil0" d="M463.7 635.63l3.12 0 0.33 1.26 22.01 0 0 5.65c-2.1,2.52 -3.79,4.89 -5.07,7.12 -1.28,2.23 -2.48,4.83 -3.57,7.81 -1.1,2.97 -1.91,5.77 -2.44,8.37 -0.54,2.61 -1.02,6.58 -1.44,11.91l-8.46 0c0.38,-4.83 1.01,-8.86 1.91,-12.07 0.89,-3.22 2.34,-6.7 4.32,-10.45 1.98,-3.75 4.07,-6.94 6.27,-9.58l-10.73 0c-1.37,0 -2.26,0.1 -2.69,0.29 -0.43,0.2 -0.76,0.51 -1.01,0.94 -0.25,0.43 -0.53,1.4 -0.85,2.91l-0.5 2.37 -4.5 -1.31 3.3 -15.22z"/>
  <path class="fil1 str0" d="M505.99 7.71c275.19,0 498.28,223.09 498.28,498.28 0,275.19 -223.09,498.28 -498.28,498.28 -275.19,0 -498.28,-223.09 -498.28,-498.28 0,-275.19 223.09,-498.28 498.28,-498.28z"/>
 </g>
</svg>
