<?xml version="1.0" encoding="UTF-8"?>
<!DOCTYPE svg PUBLIC "-//W3C//DTD SVG 1.1//EN" "http://www.w3.org/Graphics/SVG/1.1/DTD/svg11.dtd">
<!-- Creator: CorelDRAW 2021 (64-Bit) -->
<svg xmlns="http://www.w3.org/2000/svg" xml:space="preserve" width="11.1058mm" height="11.1058mm" version="1.1" style="shape-rendering:geometricPrecision; text-rendering:geometricPrecision; image-rendering:optimizeQuality; fill-rule:evenodd; clip-rule:evenodd"
viewBox="0 0 46.36 46.36"
 xmlns:xlink="http://www.w3.org/1999/xlink"
 xmlns:xodm="http://www.corel.com/coreldraw/odm/2003">
 <defs>
  <style type="text/css">
   <![CDATA[
    .str0 {stroke:black;stroke-width:0.44;stroke-linecap:round;stroke-linejoin:round;stroke-miterlimit:22.9256}
    .fil0 {fill:white}
    .fil1 {fill:black;fill-rule:nonzero}
   ]]>
  </style>
 </defs>
 <g id="Layer_x0020_1">
  <metadata id="CorelCorpID_0Corel-Layer"/>
  <circle class="fil0 str0" cx="23.18" cy="23.18" r="22.96"/>
  <path class="fil1" d="M6.61 28.12l0 -3.81c0.6,0 1.03,-0.08 1.29,-0.24 0.26,-0.16 0.39,-0.46 0.39,-0.91l0 -5.19c0,-0.45 -0.13,-0.76 -0.39,-0.92 -0.26,-0.16 -0.69,-0.24 -1.29,-0.24l0 -3.81 10.86 0c1.01,0 1.85,0.1 2.54,0.3 0.69,0.2 1.24,0.48 1.65,0.85 0.41,0.37 0.71,0.81 0.88,1.32 0.17,0.51 0.26,1.08 0.26,1.71 0,1.15 -0.28,2.07 -0.83,2.75 -0.55,0.69 -1.44,1.06 -2.66,1.11l0 0.12c0.59,0.04 1.07,0.15 1.46,0.33 0.39,0.18 0.69,0.41 0.91,0.69 0.22,0.28 0.38,0.63 0.47,1.03 0.09,0.4 0.14,0.85 0.14,1.36l0 0.54c0,0.17 0.04,0.32 0.13,0.45 0.09,0.13 0.23,0.19 0.41,0.19 0.2,0 0.34,-0.06 0.42,-0.19 0.08,-0.13 0.12,-0.28 0.12,-0.45l0 -2.6 1.18 0 0 2.6c0,0.49 -0.07,0.95 -0.22,1.36 -0.15,0.41 -0.39,0.77 -0.72,1.08 -0.34,0.31 -0.78,0.55 -1.32,0.71 -0.55,0.17 -1.22,0.25 -2.02,0.25 -0.8,0 -1.45,-0.09 -1.96,-0.26 -0.51,-0.17 -0.91,-0.42 -1.19,-0.72 -0.29,-0.31 -0.49,-0.67 -0.6,-1.07 -0.11,-0.41 -0.17,-0.84 -0.17,-1.29l0 -0.79c0,-0.55 -0.03,-0.99 -0.09,-1.33 -0.06,-0.34 -0.16,-0.6 -0.3,-0.79 -0.14,-0.19 -0.32,-0.31 -0.55,-0.37 -0.23,-0.06 -0.5,-0.09 -0.82,-0.09l-0.25 0 0 1.47c0,0.36 0.1,0.62 0.3,0.78 0.2,0.16 0.56,0.24 1.08,0.24l0 3.81 -9.12 0zm7.73 -8.11l0.9 0c0.57,0 0.97,-0.14 1.18,-0.42 0.22,-0.28 0.32,-0.66 0.32,-1.15 0,-0.57 -0.11,-0.99 -0.32,-1.24 -0.22,-0.25 -0.61,-0.38 -1.18,-0.38l-0.9 0 0 3.19z"/>
  <path class="fil1" d="M22.47 26c0,-1.32 0.22,-2.48 0.65,-3.47 0.43,-0.99 1.05,-1.83 1.84,-2.5 0.79,-0.67 1.74,-1.17 2.83,-1.51 1.09,-0.33 2.3,-0.5 3.62,-0.5 1.31,0 2.52,0.17 3.61,0.5 1.09,0.34 2.04,0.84 2.83,1.51 0.79,0.67 1.4,1.5 1.84,2.5 0.43,0.99 0.65,2.15 0.65,3.47 0,1.31 -0.22,2.47 -0.65,3.46 -0.43,0.99 -1.05,1.83 -1.84,2.5 -0.79,0.67 -1.73,1.18 -2.83,1.51 -1.09,0.34 -2.3,0.5 -3.61,0.5 -1.32,0 -2.52,-0.17 -3.62,-0.5 -1.09,-0.33 -2.03,-0.84 -2.83,-1.51 -0.79,-0.67 -1.41,-1.51 -1.84,-2.5 -0.43,-1 -0.65,-2.15 -0.65,-3.46zm6.89 0c0,0.83 0.03,1.52 0.09,2.08 0.06,0.56 0.17,1.01 0.32,1.35 0.15,0.35 0.36,0.59 0.62,0.75 0.26,0.15 0.6,0.23 1.01,0.23 0.39,0 0.72,-0.08 0.98,-0.23 0.27,-0.15 0.48,-0.4 0.63,-0.75 0.15,-0.35 0.26,-0.8 0.32,-1.35 0.06,-0.56 0.09,-1.25 0.09,-2.08 0,-0.81 -0.03,-1.5 -0.09,-2.07 -0.06,-0.57 -0.17,-1.02 -0.32,-1.36 -0.15,-0.34 -0.36,-0.59 -0.63,-0.74 -0.27,-0.15 -0.59,-0.23 -0.98,-0.23 -0.41,0 -0.75,0.08 -1.01,0.23 -0.26,0.15 -0.47,0.4 -0.62,0.74 -0.15,0.34 -0.26,0.8 -0.32,1.36 -0.06,0.57 -0.09,1.26 -0.09,2.07z"/>
  <path class="fil1" d="M5.27 31.24c-0.12,0.19 -0.27,0.29 -0.43,0.29 -0.17,0 -0.31,-0.09 -0.43,-0.27 -0.12,-0.18 -0.18,-0.43 -0.18,-0.74 0,-0.31 0.06,-0.56 0.19,-0.76 0.13,-0.19 0.29,-0.29 0.48,-0.29 0.14,0 0.25,0.03 0.34,0.1 -0,0.15 -0.02,0.31 -0.04,0.46 -0.04,0 -0.06,-0 -0.06,-0 -0,-0.11 -0.03,-0.21 -0.07,-0.27 -0.04,-0.07 -0.1,-0.1 -0.18,-0.1 -0.13,0 -0.24,0.08 -0.32,0.23 -0.08,0.15 -0.12,0.36 -0.12,0.62 0,0.26 0.04,0.46 0.12,0.6 0.08,0.14 0.19,0.21 0.31,0.21 0.13,0 0.24,-0.05 0.34,-0.15l0.05 0.08z"/>
  <path class="fil1" d="M5.75 30.44l0.15 0c0.17,0 0.26,-0.13 0.26,-0.4 0,-0.26 -0.09,-0.4 -0.26,-0.4l-0.15 0 0 0.79zm0.8 0.93c0,0.05 -0,0.09 -0.01,0.12l-0.29 0 -0.25 -0.77c-0.02,-0.05 -0.03,-0.09 -0.05,-0.11 -0.02,-0.02 -0.05,-0.03 -0.09,-0.03l-0.12 0 0 0.74c0.06,0.03 0.11,0.05 0.17,0.06 0,0.01 0,0.02 0,0.03 0,0.02 -0,0.04 -0.01,0.08l-0.5 0c0,-0.01 0,-0.03 0,-0.05 0,-0.02 0,-0.04 0.01,-0.07 0.05,-0.01 0.08,-0.03 0.1,-0.05 0.02,-0.02 0.03,-0.06 0.03,-0.11l0 -1.53c-0.04,-0.03 -0.09,-0.04 -0.14,-0.05 0,-0.05 0,-0.09 0.01,-0.11l0.53 0c0.14,0 0.25,0.05 0.32,0.14 0.08,0.1 0.11,0.22 0.11,0.39 0,0.12 -0.02,0.23 -0.07,0.31 -0.04,0.09 -0.11,0.15 -0.19,0.18 0.04,0.03 0.07,0.09 0.11,0.19l0.15 0.45c0.02,0.07 0.05,0.12 0.07,0.15 0.02,0.03 0.06,0.04 0.1,0.04z"/>
  <path class="fil1" d="M7 31.35l0.33 0c0.07,0 0.11,-0.03 0.13,-0.08 0.02,-0.05 0.04,-0.15 0.05,-0.27 0.01,-0 0.02,-0 0.04,-0 0.02,0 0.03,0 0.05,0.01 0.01,0.11 0.01,0.2 0.01,0.28 0,0.08 -0,0.15 -0,0.2l-0.94 0c0,-0.01 0,-0.03 0,-0.05 0,-0.02 0,-0.04 0.01,-0.07 0.05,-0.01 0.08,-0.03 0.1,-0.05 0.02,-0.02 0.03,-0.06 0.03,-0.11l0 -1.54c-0.04,-0.03 -0.09,-0.04 -0.14,-0.04 0,-0.05 0,-0.09 0.01,-0.11l0.92 0c0,0.05 0,0.11 0,0.19 0,0.08 -0,0.17 -0.01,0.28 -0.01,0 -0.04,0.01 -0.08,0.01 -0.01,-0.12 -0.02,-0.21 -0.04,-0.27 -0.02,-0.05 -0.07,-0.08 -0.13,-0.08l-0.32 0 0 0.77 0.32 -0.03 0.07 0 0 0.19 -0.07 0 -0.32 -0.02 0 0.79z"/>
  <path class="fil1" d="M8.09 30.68l0.37 0 -0.19 -0.92 -0.02 0.13 -0.16 0.79zm0.34 0.81c0,-0.04 0,-0.08 0.01,-0.12 0.07,-0.02 0.12,-0.05 0.15,-0.07l-0.1 -0.48 -0.43 0 -0.1 0.51c0.03,0.03 0.09,0.04 0.16,0.05 0,0.03 -0,0.07 -0.01,0.12l-0.4 0c0,-0.04 0,-0.08 0.01,-0.12 0.08,-0.02 0.13,-0.08 0.15,-0.18l0.36 -1.68c0.05,-0.02 0.11,-0.03 0.19,-0.03l0.36 1.72c0.01,0.07 0.03,0.11 0.06,0.14 0.02,0.03 0.06,0.04 0.11,0.05 -0,0.05 -0.01,0.09 -0.01,0.12l-0.5 0z"/>
  <polygon class="fil1" points="9.51,29.22 9.68,29.22 9.28,31.65 9.12,31.65 "/>
  <path class="fil1" d="M11.58 31.49l-0.5 0c-0,-0.02 -0,-0.04 -0,-0.06 0,-0.02 0,-0.04 0,-0.06 0.05,-0.01 0.09,-0.03 0.11,-0.05 0.03,-0.02 0.04,-0.06 0.04,-0.11l-0.05 -1.43 -0.07 0.27 -0.37 1.44 -0.06 0 -0.4 -1.73 -0.07 1.57c0.04,0.02 0.09,0.03 0.15,0.04 -0,0.03 -0,0.07 -0.01,0.12l-0.42 0c0,-0.05 0.01,-0.09 0.01,-0.12 0.1,-0.02 0.15,-0.08 0.15,-0.17l0.07 -1.53c-0.03,-0.02 -0.07,-0.03 -0.11,-0.04 -0,-0.01 -0,-0.03 -0,-0.05 0,-0.02 0,-0.04 0.01,-0.06l0.36 0 0.33 1.45 0.37 -1.45 0.34 0c0,0.03 0.01,0.05 0.01,0.07 0,0.02 0,0.04 0,0.05 -0.04,0.01 -0.06,0.02 -0.08,0.05 -0.02,0.03 -0.03,0.07 -0.02,0.12l0.07 1.53c0.05,0.02 0.1,0.04 0.15,0.04 0,0.02 0,0.04 0,0.06 0,0.02 -0,0.04 -0,0.06z"/>
  <path class="fil1" d="M12.7 29.52c0.01,0.07 0.01,0.14 0.01,0.22 0,0.08 -0,0.15 -0.01,0.24 -0.02,0.01 -0.03,0.01 -0.04,0.01 -0.01,0 -0.02,-0 -0.03,-0 -0.01,-0.12 -0.02,-0.21 -0.05,-0.26 -0.03,-0.05 -0.07,-0.07 -0.13,-0.07l-0.16 0 0 1.68c0.05,0.03 0.11,0.04 0.18,0.05 0,0.01 0,0.03 0,0.05 0,0.02 -0,0.04 -0.01,0.07l-0.55 0c-0,-0.01 -0,-0.03 -0,-0.05 0,-0.02 0,-0.04 0.01,-0.07 0.06,-0.01 0.11,-0.03 0.13,-0.05 0.02,-0.02 0.04,-0.06 0.04,-0.11l0 -1.56 -0.16 0c-0.06,0 -0.11,0.02 -0.13,0.07 -0.03,0.05 -0.04,0.13 -0.05,0.26 -0.01,0 -0.02,0 -0.03,0 -0.01,0 -0.03,-0 -0.04,-0.01 -0,-0.06 -0.01,-0.13 -0.01,-0.21 0,-0.07 0,-0.16 0.01,-0.24l1.03 0z"/>
  <path class="fil1" d="M13.83 29.67c0.14,0 0.25,0.04 0.35,0.11 0.1,0.07 0.17,0.18 0.23,0.32 0.06,0.14 0.08,0.31 0.08,0.52 0,0.24 -0.03,0.42 -0.08,0.55 -0.06,0.15 -0.13,0.26 -0.23,0.33 -0.1,0.07 -0.22,0.11 -0.36,0.11 -0.14,0 -0.26,-0.04 -0.35,-0.11 -0.1,-0.07 -0.17,-0.18 -0.23,-0.32 -0.06,-0.14 -0.08,-0.32 -0.08,-0.54 0,-0.22 0.03,-0.4 0.08,-0.54 0.06,-0.14 0.13,-0.25 0.23,-0.32 0.1,-0.08 0.22,-0.11 0.36,-0.11zm0.29 0.97c0,-0.25 -0.03,-0.43 -0.09,-0.54 -0.05,-0.1 -0.12,-0.14 -0.21,-0.14 -0.08,0 -0.14,0.05 -0.2,0.15 -0.05,0.1 -0.08,0.28 -0.08,0.53 0,0.25 0.03,0.43 0.08,0.53 0.05,0.1 0.12,0.15 0.2,0.15 0.08,0 0.15,-0.05 0.21,-0.16 0.06,-0.1 0.08,-0.28 0.08,-0.52z"/>
  <path id="_1" class="fil1" d="M14.94 30.3l-0.23 0c0,-0.02 0,-0.04 0,-0.05 0,-0.12 0.02,-0.22 0.06,-0.3 0.04,-0.08 0.11,-0.15 0.2,-0.21 0.09,-0.05 0.19,-0.08 0.31,-0.08 0.11,0 0.21,0.02 0.3,0.07 0.09,0.05 0.15,0.11 0.2,0.19 0.04,0.08 0.06,0.15 0.06,0.23 0,0.06 -0.01,0.12 -0.04,0.19 -0.03,0.06 -0.06,0.11 -0.11,0.15 -0.03,0.03 -0.08,0.06 -0.14,0.08 0.06,0.01 0.1,0.02 0.15,0.05 0.04,0.03 0.08,0.06 0.11,0.1 0.03,0.04 0.06,0.08 0.07,0.13 0.02,0.05 0.02,0.1 0.02,0.16 0,0.1 -0.02,0.2 -0.07,0.29 -0.05,0.09 -0.12,0.16 -0.22,0.22 -0.1,0.06 -0.21,0.08 -0.34,0.08 -0.13,0 -0.24,-0.03 -0.34,-0.08 -0.1,-0.05 -0.17,-0.12 -0.22,-0.2 -0.05,-0.08 -0.07,-0.16 -0.07,-0.24 0,-0.06 0.02,-0.11 0.05,-0.15 0.03,-0.04 0.08,-0.06 0.13,-0.06 0.05,0 0.09,0.02 0.12,0.06 0.02,0.03 0.04,0.07 0.06,0.13 0.02,0.08 0.04,0.14 0.06,0.16 0.02,0.03 0.04,0.05 0.08,0.07 0.04,0.02 0.08,0.03 0.12,0.03 0.05,0 0.09,-0.01 0.13,-0.04 0.04,-0.03 0.07,-0.06 0.1,-0.11 0.02,-0.04 0.03,-0.09 0.03,-0.15 0,-0.11 -0.03,-0.19 -0.1,-0.24 -0.05,-0.04 -0.14,-0.06 -0.25,-0.06l-0.07 0 0 -0.26 0.07 0c0.09,0 0.15,-0.01 0.19,-0.02 0.04,-0.02 0.07,-0.04 0.09,-0.08 0.02,-0.04 0.03,-0.08 0.03,-0.12 0,-0.06 -0.02,-0.11 -0.05,-0.15 -0.05,-0.05 -0.12,-0.08 -0.21,-0.08 -0.06,0 -0.11,0.01 -0.15,0.04 -0.04,0.02 -0.07,0.06 -0.1,0.1 -0.02,0.04 -0.04,0.1 -0.04,0.17z"/>
  <path id="_2" class="fil1" d="M17.06 30.53c0.11,0.05 0.2,0.13 0.26,0.22 0.05,0.07 0.07,0.16 0.07,0.27 0,0.16 -0.05,0.3 -0.16,0.41 -0.12,0.12 -0.27,0.18 -0.47,0.18 -0.13,0 -0.25,-0.03 -0.34,-0.07 -0.1,-0.05 -0.17,-0.11 -0.21,-0.19 -0.05,-0.08 -0.07,-0.16 -0.07,-0.24 0,-0.09 0.03,-0.17 0.08,-0.25 0.05,-0.08 0.13,-0.14 0.24,-0.2 -0.09,-0.05 -0.16,-0.12 -0.2,-0.2 -0.05,-0.08 -0.07,-0.17 -0.07,-0.27 0,-0.1 0.02,-0.18 0.07,-0.26 0.04,-0.08 0.11,-0.14 0.2,-0.19 0.09,-0.05 0.2,-0.07 0.31,-0.07 0.15,0 0.28,0.04 0.38,0.12 0.11,0.08 0.16,0.19 0.16,0.33 0,0.08 -0.02,0.15 -0.05,0.22 -0.04,0.07 -0.1,0.13 -0.19,0.2zm-0.21 -0.12l0.04 -0.06c0.03,-0.03 0.04,-0.06 0.05,-0.08 0.01,-0.03 0.02,-0.05 0.03,-0.07 0.01,-0.02 0.01,-0.04 0.01,-0.07 0,-0.05 -0.02,-0.09 -0.06,-0.13 -0.04,-0.04 -0.1,-0.06 -0.17,-0.06 -0.07,0 -0.13,0.02 -0.16,0.05 -0.04,0.04 -0.06,0.08 -0.06,0.12 0,0.04 0.01,0.08 0.04,0.1 0.03,0.04 0.09,0.08 0.17,0.12l0.12 0.06zm-0.18 0.37c-0.07,0.05 -0.12,0.09 -0.16,0.14 -0.03,0.05 -0.05,0.1 -0.05,0.15 0,0.04 0.01,0.08 0.03,0.11 0.02,0.04 0.06,0.07 0.1,0.09 0.05,0.02 0.1,0.03 0.16,0.03 0.06,0 0.12,-0.01 0.16,-0.03 0.05,-0.02 0.08,-0.05 0.1,-0.08 0.02,-0.03 0.03,-0.06 0.03,-0.1 0,-0.05 -0.01,-0.08 -0.04,-0.11 -0.04,-0.04 -0.1,-0.09 -0.19,-0.13l-0.16 -0.08z"/>
  <path id="_3" class="fil1" d="M17.74 29.64l0.14 0 0.02 0.06 1.01 0 0 0.26c-0.1,0.12 -0.17,0.23 -0.23,0.33 -0.06,0.1 -0.11,0.22 -0.16,0.36 -0.05,0.14 -0.09,0.27 -0.11,0.39 -0.03,0.12 -0.05,0.3 -0.07,0.55l-0.39 0c0.02,-0.22 0.05,-0.41 0.09,-0.56 0.04,-0.15 0.11,-0.31 0.2,-0.48 0.09,-0.17 0.19,-0.32 0.29,-0.44l-0.49 0c-0.06,0 -0.1,0 -0.12,0.01 -0.02,0.01 -0.04,0.02 -0.05,0.04 -0.01,0.02 -0.02,0.06 -0.04,0.13l-0.02 0.11 -0.21 -0.06 0.15 -0.7z"/>
  <path id="_4" class="fil1" d="M20 30.53c0.11,0.05 0.2,0.13 0.26,0.22 0.05,0.07 0.07,0.16 0.07,0.27 0,0.16 -0.05,0.3 -0.16,0.41 -0.12,0.12 -0.27,0.18 -0.47,0.18 -0.13,0 -0.25,-0.03 -0.34,-0.07 -0.1,-0.05 -0.17,-0.11 -0.21,-0.19 -0.05,-0.08 -0.07,-0.16 -0.07,-0.24 0,-0.09 0.03,-0.17 0.08,-0.25 0.05,-0.08 0.13,-0.14 0.24,-0.2 -0.09,-0.05 -0.16,-0.12 -0.2,-0.2 -0.05,-0.08 -0.07,-0.17 -0.07,-0.27 0,-0.1 0.02,-0.18 0.06,-0.26 0.04,-0.08 0.11,-0.14 0.2,-0.19 0.09,-0.05 0.2,-0.07 0.31,-0.07 0.15,0 0.28,0.04 0.38,0.12 0.11,0.08 0.16,0.19 0.16,0.33 0,0.08 -0.02,0.15 -0.05,0.22 -0.04,0.07 -0.1,0.13 -0.19,0.2zm-0.21 -0.12l0.04 -0.06c0.03,-0.03 0.04,-0.06 0.05,-0.08 0.01,-0.03 0.02,-0.05 0.03,-0.07 0.01,-0.02 0.01,-0.04 0.01,-0.07 0,-0.05 -0.02,-0.09 -0.06,-0.13 -0.04,-0.04 -0.1,-0.06 -0.17,-0.06 -0.07,0 -0.13,0.02 -0.16,0.05 -0.04,0.04 -0.06,0.08 -0.06,0.12 0,0.04 0.01,0.08 0.04,0.1 0.03,0.04 0.09,0.08 0.17,0.12l0.12 0.06zm-0.18 0.37c-0.07,0.05 -0.12,0.09 -0.16,0.14 -0.03,0.05 -0.05,0.1 -0.05,0.15 0,0.04 0.01,0.08 0.03,0.11 0.02,0.04 0.06,0.07 0.1,0.09 0.05,0.02 0.1,0.03 0.16,0.03 0.06,0 0.12,-0.01 0.16,-0.03 0.05,-0.02 0.08,-0.05 0.1,-0.08 0.02,-0.03 0.03,-0.06 0.03,-0.1 0,-0.05 -0.01,-0.08 -0.04,-0.11 -0.04,-0.04 -0.1,-0.09 -0.19,-0.13l-0.16 -0.08z"/>
  <path id="_5" class="fil1" d="M20.68 29.64l0.14 0 0.02 0.06 1.01 0 0 0.26c-0.1,0.12 -0.17,0.23 -0.23,0.33 -0.06,0.1 -0.11,0.22 -0.16,0.36 -0.05,0.14 -0.09,0.27 -0.11,0.39 -0.02,0.12 -0.05,0.3 -0.07,0.55l-0.39 0c0.02,-0.22 0.05,-0.41 0.09,-0.56 0.04,-0.15 0.11,-0.31 0.2,-0.48 0.09,-0.17 0.19,-0.32 0.29,-0.44l-0.49 0c-0.06,0 -0.1,0 -0.12,0.01 -0.02,0.01 -0.04,0.02 -0.05,0.04 -0.01,0.02 -0.02,0.06 -0.04,0.13l-0.02 0.11 -0.21 -0.06 0.15 -0.7z"/>
 </g>
</svg>
