<?xml version="1.0" encoding="UTF-8"?>
<!DOCTYPE svg PUBLIC "-//W3C//DTD SVG 1.1//EN" "http://www.w3.org/Graphics/SVG/1.1/DTD/svg11.dtd">
<!-- Creator: CorelDRAW 2021 (64-Bit) -->
<svg xmlns="http://www.w3.org/2000/svg" xml:space="preserve" width="90.6673mm" height="92.9917mm" version="1.1" style="shape-rendering:geometricPrecision; text-rendering:geometricPrecision; image-rendering:optimizeQuality; fill-rule:evenodd; clip-rule:evenodd"
viewBox="0 0 8948.95 9178.37"
 xmlns:xlink="http://www.w3.org/1999/xlink"
 xmlns:xodm="http://www.corel.com/coreldraw/odm/2003">
 <defs>
  <style type="text/css">
   <![CDATA[
    .fil0 {fill:white;fill-rule:nonzero}
   ]]>
  </style>
 </defs>
 <g id="Layer_x0020_1">
  <metadata id="CorelCorpID_0Corel-Layer"/>
  <path class="fil0" d="M490.81 6598.52c-313.65,-611.46 -490.81,-1304.09 -490.81,-2037.31 0,-735.82 178.48,-1430.41 494.2,-2043.08l58.71 50.97c-305.02,598.34 -477.16,1275.36 -477.16,1992.11 0,718.55 173.26,1397.51 480,1997.33l-64.94 39.97zm7925.25 -4152.24c339.76,630.26 532.88,1350.58 532.88,2114.93 0.95,771.77 -194.65,1498.55 -539.43,2133.06l-65.95 -37.07c339.53,-623.59 532.68,-1337.76 532.68,-2095.98 0,-743.36 -199.5,-1465.22 -526.4,-2079.65l66.23 -35.29z"/>
  <path class="fil0" d="M967.47 2338.9l63.38 -93.8c12.77,-18.9 16.32,-34.77 10.64,-47.59 -5.67,-12.83 -19.48,-28.35 -41.45,-46.59 1.71,-3.34 3.97,-7.14 6.84,-11.38 2.88,-4.25 6.46,-8.3 10.75,-12.15 20.72,11.77 38.5,22.65 53.38,32.7 14.85,10.04 26.97,18.51 36.37,25.41l-179.15 265.16c-1.92,-1.29 -4.84,-3.25 -8.7,-5.86 -3.85,-2.61 -7.57,-6.26 -11.16,-10.93 6.93,-14.42 10.36,-25.75 10.27,-33.95 -0.06,-8.2 -5.11,-15.7 -15.15,-22.47l-280.21 -189.33c-11.93,7.69 -23.76,19.37 -35.47,35.07 -9.26,-6.27 -15.68,-11.74 -19.29,-16.4l173.66 -257.04c8.75,5.36 20.57,13.05 35.42,23.09 14.85,10.04 30.96,22.6 48.31,37.69 -1.05,3.23 -5.75,11.02 -14.09,23.36 -24.08,-13.45 -42.95,-20.44 -56.66,-20.99 -13.69,-0.53 -26.78,8.48 -39.3,27l-59.85 88.56 141.26 95.44 55.42 -93.26 13.3 -19.69 34.74 23.48 -13.31 19.69 -64.11 87.37 144.16 97.41z"/>
  <path class="fil0" d="M1231.1 1341.81c2.4,1.55 5.22,3.79 8.49,6.76 3.29,2.99 6.21,6.88 8.74,11.71 -18.53,25.95 -19.51,46.45 -2.95,61.48l274.18 248.86 -19.73 21.74 -377.31 -39.63 -67.75 -9.58 242.13 219.79c12.27,-5.22 26.27,-15.8 42,-31.72 1.03,0.94 2.92,2.66 5.68,5.16 2.77,2.5 6.78,7.1 12.04,13.77l-92.98 102.44c-2.38,-1.54 -5.21,-3.79 -8.49,-6.77 -3.27,-2.97 -6.35,-7.03 -9.23,-12.16 17.86,-25.92 18.85,-46.09 2.99,-60.48l-249.88 -226.81c-12.86,6.56 -25.71,16.91 -38.54,31.05 -8.36,-8.82 -13.78,-15.33 -16.29,-19.51l75.13 -82.75 294.8 30.75 89.69 13.44 -206.96 -187.83c-12.28,5.22 -26.27,15.79 -41.97,31.72 -1.05,-0.94 -3.04,-2.74 -5.95,-5.4 -2.94,-2.66 -6.69,-7.02 -11.27,-13.07l93.43 -102.95z"/>
  <path class="fil0" d="M1907.49 1059.87c1.81,1.53 4.09,4.04 6.82,7.5 2.75,3.47 5.54,8.85 8.32,16.16 -11.04,12.3 -17.87,22.44 -20.47,30.43 -2.58,7.98 -0.25,16.55 6.97,25.67l94.92 120.01 -27.41 21.67 -25.82 -8.99c-13,37.61 -34.32,68.12 -63.9,91.53 -43.47,34.4 -92.81,47.87 -147.98,40.42 -55.16,-7.41 -103.82,-37.8 -146.02,-91.16 -42.17,-53.33 -59.01,-110.83 -50.5,-172.52 8.52,-61.67 37.46,-112.01 86.77,-151.02 34.71,-27.44 72.94,-48.18 114.7,-62.2 17.27,22.57 34.49,51.12 51.68,85.61 -7.67,6.08 -13.47,10.36 -17.42,12.89 -18.08,-18.37 -38.23,-27.68 -60.41,-27.95 -22.17,-0.26 -43.32,7.55 -63.4,23.43 -37.64,29.77 -56.88,66.05 -57.73,108.9 -0.86,42.86 17.06,87.48 53.75,133.86 36.69,46.4 74.58,74.2 113.62,83.41 39.05,9.2 74.83,0.94 107.34,-24.77 22.29,-17.63 39.49,-40.16 51.65,-67.58l-77.57 -98.08c-16.61,6 -32.53,14.43 -47.7,25.25 -6.94,-8.75 -12.19,-16.5 -15.7,-23.2l125.49 -99.25z"/>
  <path class="fil0" d="M2286.19 1037.96l96.62 -58.98c19.46,-11.88 29.29,-24.85 29.46,-38.88 0.17,-14.02 -5.94,-33.86 -18.36,-59.59 2.94,-2.34 6.57,-4.84 10.96,-7.51 4.38,-2.67 9.31,-4.87 14.82,-6.58 13.97,19.3 25.61,36.62 34.96,51.92 9.34,15.31 16.86,28.05 22.53,38.23l-273.14 166.76c-1.2,-1.98 -3.03,-4.97 -5.47,-8.96 -2.41,-3.95 -4.28,-8.82 -5.61,-14.57 12.3,-10.24 20.13,-19.1 23.46,-26.61 3.34,-7.48 1.85,-16.4 -4.46,-26.74l-176.21 -288.62c-14.05,2.02 -29.66,7.74 -46.84,17.14 -5.81,-9.54 -9.4,-17.19 -10.72,-22.94l264.76 -161.64c5.74,8.51 13.3,20.41 22.63,35.71 9.34,15.31 18.76,33.44 28.29,54.36 -2.31,2.5 -9.83,7.63 -22.53,15.4 -16.32,-22.25 -30.59,-36.44 -42.81,-42.63 -12.24,-6.18 -27.88,-3.43 -46.97,8.22l-91.24 55.7 88.83 145.5 89.16 -61.79 20.28 -12.39 21.84 35.79 -20.27 12.38 -94.63 52.84 90.67 148.49z"/>
  <path class="fil0" d="M2885.22 265.35c1.61,2.35 3.34,5.52 5.21,9.51 1.88,4.02 3.05,8.74 3.53,14.16 -27.13,16.75 -35.98,35.29 -26.53,55.55l156.53 335.58 -26.61 12.41 -332.59 -182.55 -58.76 -35.05 138.21 296.35c13.33,-0.06 30.35,-4.4 51,-13 0.58,1.28 1.67,3.59 3.24,6.96 1.58,3.38 3.5,9.16 5.77,17.36l-125.36 58.47c-1.61,-2.34 -3.36,-5.51 -5.22,-9.51 -1.87,-4.01 -3.13,-8.94 -3.81,-14.8 26.52,-16.99 35.23,-35.21 26.18,-54.61l-142.63 -305.84c-14.41,1.08 -30.25,5.65 -47.56,13.72 -4.28,-11.37 -6.76,-19.46 -7.47,-24.28l101.31 -47.24 259.93 142.42 77.5 47.12 -118.14 -253.28c-13.34,0.05 -30.34,4.38 -50.99,13 -0.59,-1.27 -1.72,-3.7 -3.4,-7.28 -1.67,-3.59 -3.45,-9.06 -5.34,-16.4l126 -58.77z"/>
  <path class="fil0" d="M3540.36 145.61l83.79 327.62c14.02,2.19 30.41,1.36 49.13,-2.46 2.43,9.48 3.89,18 4.37,25.56l-155.67 39.82c-3.01,-11.75 -4.47,-20.25 -4.38,-25.55 15.22,-6.32 25.4,-12.52 30.57,-18.65 5.16,-6.13 6.25,-15.05 3.25,-26.8l-34.28 -134.03 -186.81 47.79 40.67 159.07c14.48,2.06 30.63,1.3 48.45,-2.29 0.34,1.35 0.98,3.83 1.9,7.44 0.93,3.61 1.74,9.65 2.47,18.13l-155 39.64c-0.58,-2.27 -1.45,-5.65 -2.6,-10.17 -1.15,-4.5 -1.53,-9.69 -1.11,-15.57 14.77,-6.2 24.85,-12.38 30.22,-18.58 5.39,-6.17 6.59,-15.12 3.58,-26.87l-83.78 -327.62c-14.03,-2.18 -30.63,-1.3 -49.81,2.66 -2.77,-10.84 -3.94,-19.2 -3.51,-25.08l155.01 -39.65c3,11.75 4.39,20.04 4.19,24.91 -14.88,5.7 -24.99,11.78 -30.32,18.18 -5.33,6.43 -6.49,15.5 -3.49,27.22l34.46 134.71 186.81 -47.79 -40.85 -159.74c-14.47,-2.07 -30.62,-1.31 -48.45,2.31 -0.35,-1.35 -1.02,-3.95 -2,-7.8 -0.97,-3.83 -1.71,-9.53 -2.19,-17.1l155.67 -39.83c1.04,2.14 2.12,5.47 3.28,9.99 1.15,4.51 1.24,9.53 0.26,15.09 -14.88,5.7 -24.99,11.78 -30.32,18.19 -5.33,6.42 -6.5,15.5 -3.5,27.21z"/>
  <path class="fil0" d="M3984.94 433.38l112.75 -10.2c22.72,-2.05 37.25,-9.35 43.61,-21.84 6.36,-12.51 9.64,-33.03 9.88,-61.57 3.66,-0.81 8.04,-1.43 13.16,-1.9 5.1,-0.46 10.49,-0.25 16.19,0.64 4,23.48 6.79,44.16 8.42,62.02 1.62,17.86 2.72,32.61 3.32,44.25l-318.72 28.85c-0.22,-2.33 -0.52,-5.81 -0.94,-10.45 -0.42,-4.63 0.05,-9.81 1.4,-15.57 15.56,-3.73 26.49,-8.24 32.8,-13.49 6.32,-5.23 8.92,-13.9 7.84,-25.95l-30.48 -336.81c-13.5,-4.39 -30.03,-6.16 -49.61,-5.31 -1,-11.14 -0.83,-19.58 0.52,-25.32l308.94 -27.96c1.39,10.18 2.89,24.19 4.51,42.04 1.62,17.86 2.06,38.29 1.34,61.27 -3.18,1.21 -12.18,2.5 -27.02,3.84 -4.79,-27.15 -11.31,-46.2 -19.55,-57.16 -8.24,-10.95 -23.48,-15.41 -45.77,-13.39l-106.46 9.63 15.37 169.78 107.29 -16.01 23.68 -2.14 3.77 41.75 -23.67 2.14 -108.24 5.57 15.67 173.28z"/>
  <path class="fil0" d="M4500.66 61.35l4.2 338.15c13.58,5.42 29.45,8.47 47.63,9.19 0.03,1.4 0.05,3.95 0.1,7.68 0.04,3.73 -0.58,9.78 -1.88,18.19l-159.98 1.99c-0.04,-2.33 -0.07,-5.83 -0.14,-10.49 -0.06,-4.64 0.82,-9.78 2.62,-15.4 15.8,-2.52 27.06,-6.16 33.75,-10.91 6.7,-4.72 9.99,-13.16 9.83,-25.27l-4.2 -338.15c-13.13,-5.42 -29.46,-8.47 -49.03,-9.15 -0.15,-11.18 0.69,-19.58 2.48,-25.2l159.97 -1.99c0.16,12.12 -0.42,20.51 -1.77,25.2 -15.81,2.04 -27.06,5.56 -33.76,10.53 -6.69,4.98 -9.98,13.53 -9.82,25.62z"/>
  <path class="fil0" d="M4891.51 217.39l51.45 5.03c58.88,5.75 91.13,-20.23 96.78,-77.95 5.64,-57.72 -20.97,-89.45 -79.86,-95.2l-51.44 -5.04 -16.93 173.16zm249.94 229.41c-1,10.21 -2.8,19.17 -5.43,26.87l-96.65 -9.46 -67.63 -177.2c-4.47,-11.67 -9.59,-20.25 -15.37,-25.73 -5.8,-5.48 -15.4,-8.87 -28.84,-10.19l-38.95 -3.81 -15.78 161.34c18.74,9.3 37.56,15.59 56.44,18.85 -0.15,1.38 -0.39,3.93 -0.75,7.64 -0.37,3.7 -1.65,9.65 -3.85,17.88l-169.69 -16.58c0.23,-2.32 0.57,-5.81 1.03,-10.45 0.45,-4.61 1.89,-9.63 4.28,-15.01 15.99,-0.77 27.57,-3.16 34.74,-7.15 7.18,-3.97 11.35,-11.98 12.54,-24.03l32.84 -335.86c-13.79,-7.44 -29.67,-12.5 -47.67,-15.19 1.09,-11.11 2.84,-19.38 5.25,-24.77l178.71 17.47c47.28,4.62 82.76,18.62 106.45,42.01 23.69,23.39 33.79,52.9 30.29,88.6 -2.62,26.89 -12.29,49.1 -28.98,66.66 -16.69,17.56 -39.77,28.65 -69.24,33.26 11.89,7.69 22.36,22.77 31.38,45.18l42.51 103.84c6.34,16.52 13.18,27.96 20.52,34.3 7.34,6.34 17.96,10.19 31.85,11.53z"/>
  <path class="fil0" d="M6679.38 975.79c-57.39,13.54 -110.2,4.85 -158.42,-26.08 -48.22,-30.94 -78.37,-74.09 -90.45,-129.45 -12.09,-55.32 0.3,-111.72 37.14,-169.16 36.85,-57.44 85.28,-92.36 145.26,-104.79 59.99,-12.42 116.83,-1.4 170.55,33.05 39.2,25.16 67.72,52.32 85.54,81.46 -18.89,27.72 -40.65,53.88 -65.29,78.47 -10.59,-6.79 -16.35,-10.75 -17.25,-11.88 12.79,-21.68 16.91,-42.99 12.35,-63.91 -4.58,-20.9 -17.45,-38.15 -38.62,-51.73 -37.63,-24.13 -77.01,-29.62 -118.12,-16.43 -41.13,13.19 -77.13,43.88 -108.08,92.11 -30.94,48.24 -43.03,93.18 -36.28,134.87 6.73,41.68 28.03,74.02 63.91,97.03 35.87,23.01 73.77,34.04 113.66,33.08l4.1 23.37z"/>
  <path class="fil0" d="M7140.65 886.79l-190.83 279.21c8.01,12.23 19.24,23.85 33.73,34.87 -0.8,1.16 -2.24,3.27 -4.33,6.34 -2.11,3.08 -6.11,7.69 -12,13.83l-132.09 -90.28c1.31,-1.92 3.29,-4.82 5.91,-8.67 2.63,-3.83 6.3,-7.53 10.99,-11.09 14.39,7.02 25.7,10.49 33.9,10.45 8.19,-0.02 15.72,-5.04 22.54,-15.03l190.83 -279.2c-7.62,-11.97 -19.26,-23.86 -34.88,-35.67 6.32,-9.22 11.81,-15.61 16.51,-19.19l132.09 90.27c-6.84,10.01 -12.14,16.53 -15.93,19.6 -14.11,-7.41 -25.35,-11 -33.69,-10.77 -8.33,0.23 -15.93,5.34 -22.75,15.33z"/>
  <path class="fil0" d="M7423.1 1065.66c4.48,-6.68 7.99,-11.38 10.57,-14.06 2.58,-2.68 4.53,-4.38 5.84,-5.06l115 110.24c-2.55,4.68 -7.86,11.2 -15.91,19.61 -16.08,-12.18 -26.9,-18.2 -32.49,-18.09 -5.61,0.11 -9.94,1.78 -12.99,4.96 -3.07,3.19 -6.02,7.95 -8.85,14.26l-99.22 238.8c-6.57,16.28 -13.52,29.94 -20.87,40.96l2.01 1.93 301.32 -144.72c-6.22,-13.69 -15.58,-27.5 -28.04,-41.41 8.04,-8.4 14.35,-13.99 18.92,-16.72l89.27 85.58c-8.08,7.09 -14.9,12.19 -20.44,15.26 -20.37,-13.72 -40.52,-15.94 -60.4,-6.63l-367.03 169.83 -18.65 -17.88 163.41 -404.71c-5.5,-11.08 -12.65,-21.79 -21.44,-32.16z"/>
  <path class="fil0" d="M7962.42 1665.42l-265.84 209.01c3.97,14.08 11.19,28.52 21.68,43.4 -1.11,0.87 -3.11,2.45 -6.04,4.75 -2.93,2.3 -8.11,5.49 -15.58,9.57l-98.89 -125.77c1.83,-1.44 4.59,-3.6 8.25,-6.49 3.64,-2.86 8.25,-5.29 13.8,-7.28 11.62,11.02 21.36,17.74 29.21,20.15 7.81,2.44 16.49,-0.09 26.03,-7.57l265.83 -209.01c-3.67,-13.71 -11.18,-28.53 -22.55,-44.49 8.79,-6.9 15.97,-11.36 21.52,-13.34l98.89 125.76c-9.53,7.48 -16.55,12.14 -21.08,13.91 -11.24,-11.29 -20.88,-18.09 -28.91,-20.37 -8.01,-2.3 -16.8,0.31 -26.3,7.79z"/>
  <path class="fil0" d="M7962.31 2230.21l67.88 100.02c12.29,18.11 25.26,27.04 38.89,26.81 13.61,-0.25 32.26,-6.99 55.93,-20.23 4.96,7.32 9.16,14.34 12.56,21.02 -19.12,15.79 -35.61,28.39 -49.5,37.81 -13.87,9.43 -25.37,16.94 -34.5,22.57l-180.46 -265.94c1.67,-1.7 4.42,-3.86 8.29,-6.47 3.85,-2.61 8.74,-4.53 14.68,-5.73 10.81,11.79 20.05,19.18 27.71,22.15 7.62,2.98 16.47,1.06 26.48,-5.73l279.83 -189.89c-2.68,-13.92 -9.02,-29.05 -18.98,-45.36 1.15,-0.79 3.37,-2.3 6.64,-4.51 3.29,-2.23 8.4,-4.87 15.36,-7.91l89.84 132.41c-1.68,1.7 -4.43,3.84 -8.28,6.46 -3.87,2.63 -8.55,4.42 -14.11,5.36 -10.16,-11.68 -19.17,-18.93 -27.01,-21.77 -7.84,-2.83 -16.78,-0.87 -26.78,5.92l-284.46 193.03z"/>
  <path class="fil0" d="M874.42 6955.97l30.49 45.68c34.86,52.24 77.91,61.28 129.15,27.08 51.22,-34.19 59.4,-77.41 24.52,-129.65l-30.47 -45.68 -153.69 102.57zm-20.41 359.76c-9.06,6.04 -17.63,10.57 -25.71,13.59l-57.26 -85.8 100.13 -174.77c6.58,-11.52 10.19,-21.51 10.8,-29.94 0.61,-8.44 -3.06,-18.63 -11.02,-30.57l-23.07 -34.57 -143.21 95.56c4.95,21.68 12.45,41.38 22.47,59.05 -1.24,0.83 -3.5,2.34 -6.8,4.54 -3.28,2.19 -9.04,5.14 -17.28,8.85l-100.5 -150.59c2.05,-1.37 5.14,-3.43 9.28,-6.19 4.1,-2.73 9.17,-4.94 15.2,-6.58 11.4,12.61 21.14,20.53 29.24,23.75 8.09,3.22 17.5,1.26 28.2,-5.88l298.11 -198.94c-3.16,-16.33 -9.69,-32.79 -19.57,-49.39 9.87,-6.59 17.83,-10.72 23.87,-12.36l105.86 158.6c28.01,41.99 40.38,80.56 37.1,115.78 -3.29,35.18 -20.75,63.35 -52.45,84.49 -23.86,15.94 -48.61,22.94 -74.27,21.04 -25.66,-1.92 -50.29,-13.43 -73.9,-34.55 1.64,14.94 -3.68,33.69 -16.01,56.19l-56.76 104.77c-9.32,16.34 -14.12,29.65 -14.39,39.94 -0.27,10.29 3.72,21.6 11.95,33.95z"/>
  <path class="fil0" d="M1226.1 7510.12l93.32 95.54 106.22 -199.21 -26.42 16.49 -173.12 87.17zm-49.82 220.86c7.43,-7.27 14.67,-12.95 21.71,-17.07 20.83,14.24 37.34,22.99 49.55,26.29l55.26 -103.78 -107.84 -110.42 -110.34 55.92c3.68,12.96 14.17,29.01 31.44,48.1 -4.61,4.51 -11.84,10.19 -21.7,17.08l-101.63 -104.03c7.44,-7.27 14.68,-12.95 21.71,-17.08 22.9,16.38 45.95,19.43 69.16,9.22l372.59 -181.38c14.94,8.21 32.62,22.75 53.01,43.65l-195.89 372.87c-7.53,14.27 -10.47,26.65 -8.82,37.15 1.61,10.51 8.11,22.32 19.5,35.4 -9.18,7.58 -16.59,13.09 -22.22,16.52l-125.49 -128.45z"/>
  <path class="fil0" d="M1994.44 7856.35c-6.36,8.85 -15.44,20.76 -27.23,35.7 -11.8,14.95 -26.38,31.02 -43.73,48.2 -3.32,-1.36 -11.2,-6.95 -23.64,-16.77 16.16,-24.44 25.05,-43.89 26.71,-58.34 1.63,-14.46 -6.87,-29.05 -25.51,-43.75l-89.1 -70.35 -121.38 153.77 89.75 62.35 20.97 16.55 -27.6 34.95 -20.97 -16.55 -82.85 -71.08 -97.93 124.06c11.33,18.39 28.1,38.25 50.34,59.59 -6.74,8.54 -13.16,15.46 -19.22,20.75l-154.93 -122.31c1.83,-2.32 4.28,-5.44 7.35,-9.31 3.07,-3.88 7.21,-7.54 12.44,-10.98 15.13,8.78 27.21,13.45 36.25,13.97 9.04,0.52 17.56,-4.27 25.52,-14.37l221.62 -280.73c-7.2,-13.25 -18.64,-26.68 -34.33,-40.34 7.34,-9.31 13.64,-15.69 18.88,-19.12l258.59 204.13z"/>
  <path class="fil0" d="M2101.01 8240.86l108.81 77.45 69.16 -214.89 -23.08 20.9 -154.89 116.54zm-9.82 226.19c6.02,-8.47 12.14,-15.34 18.34,-20.65 23.03,10.31 40.83,16 53.44,17.08l35.96 -111.95 -125.74 -89.5 -98.66 74.63c5.94,12.1 19.11,26.03 39.48,41.75 -3.72,5.24 -9.85,12.12 -18.33,20.65l-118.48 -84.34c6.02,-8.46 12.13,-15.34 18.33,-20.65 25.45,12.04 48.67,10.97 69.7,-3.22l334.46 -244.66c16.16,5.44 36.13,16.61 59.93,33.54l-126.58 401.74c-4.88,15.38 -5.57,28.09 -2.09,38.13 3.46,10.06 11.95,20.51 25.49,31.37 -7.69,9.1 -14.02,15.84 -18.95,20.21l-146.29 -104.13z"/>
  <path class="fil0" d="M2622.33 8722.92l108.68 51.37c21.91,10.35 39.15,11.54 51.69,3.5 12.55,-8 26.61,-25.04 42.19,-51.05 3.79,1.26 8.14,3.04 13.06,5.36 4.94,2.33 9.75,5.43 14.48,9.3 -8.99,23.66 -17.55,44.11 -25.7,61.32 -8.13,17.21 -15.07,31.3 -20.82,42.27l-307.22 -145.26c1.06,-2.24 2.64,-5.59 4.76,-10.08 2.11,-4.46 5.33,-8.95 9.65,-13.47 16.27,4.96 28.68,6.72 37.29,5.31 8.59,-1.41 15.64,-7.92 21.14,-19.55l153.51 -324.68c-9.99,-11.29 -24.16,-21.83 -42.51,-31.6 5.06,-10.72 9.77,-18.35 14.1,-22.87l297.85 140.82c-4.22,10.06 -10.38,23.69 -18.53,40.9 -8.15,17.22 -18.74,36.15 -31.77,56.79 -3.56,-0.58 -12.5,-4.26 -26.81,-11.02 10.25,-27.45 14.54,-48.4 12.9,-62.86 -1.66,-14.44 -13.23,-26.76 -34.67,-36.9l-102.64 -48.52 -77.39 163.69 106.84 43.12 22.8 10.78 -19.04 40.26 -22.79 -10.79 -102.09 -53.19 -78.98 167.05z"/>
  <path class="fil0" d="M3250.8 8954.62l122.01 39.9c22.1,7.22 38.78,6.31 50.08,-2.75 11.29,-9.07 22.57,-26.84 33.82,-53.35 8.94,2.92 17.02,6.08 24.24,9.48 -5.81,25.69 -11.46,47 -17.01,63.93 -5.53,16.92 -10.3,30.72 -14.3,41.38l-324.44 -106.08c0.31,-2.5 1.22,-6.1 2.76,-10.81 1.52,-4.71 4.4,-9.48 8.59,-14.35 16.75,2.87 29.31,3.08 37.66,0.61 8.36,-2.49 14.54,-9.84 18.54,-22.06l111.61 -341.36c-11.32,-9.95 -26.47,-18.55 -45.43,-25.79 0.45,-1.39 1.34,-4.11 2.65,-8.1 1.3,-3.99 3.9,-9.52 7.78,-16.59l161.49 52.81c-0.3,2.5 -1.21,6.1 -2.75,10.81 -1.54,4.71 -4.32,9.26 -8.36,13.66 -16.13,-3.19 -28.42,-3.42 -36.84,-0.72 -8.44,2.7 -14.66,10.18 -18.65,22.41l-113.46 346.99z"/>
  <path class="fil0" d="M5062.96 9090.35l127.2 -17.36c23.03,-3.16 37.65,-11.26 43.85,-24.35 6.21,-13.08 8.59,-33.99 7.16,-62.75 9.31,-1.27 17.95,-1.95 25.94,-2.04 6,25.64 10.2,47.28 12.61,64.94 2.4,17.63 4.13,32.13 5.18,43.47l-338.2 46.18c-0.82,-2.39 -1.57,-6.03 -2.24,-10.95 -0.67,-4.9 -0.18,-10.44 1.46,-16.65 16.33,-4.73 27.72,-10.03 34.16,-15.91 6.43,-5.87 8.78,-15.18 7.05,-27.93l-48.59 -355.83c-14.53,-4.02 -31.91,-5.14 -52.13,-3.38 -0.2,-1.45 -0.58,-4.28 -1.15,-8.45 -0.57,-4.16 -0.65,-10.27 -0.26,-18.32l168.36 -22.99c0.83,2.38 1.57,6.03 2.24,10.93 0.67,4.92 0.16,10.23 -1.57,15.94 -15.9,4.18 -27.05,9.33 -33.44,15.45 -6.42,6.11 -8.76,15.55 -7.02,28.29l49.39 361.72z"/>
  <path class="fil0" d="M5631.58 8615.05l95 346.34c15.42,1.92 32.54,0.82 51.41,-3.33 0.38,1.43 1.12,4.05 2.15,7.86 1.06,3.82 2.04,10.22 2.96,19.21l-163.85 44.95c-0.66,-2.39 -1.65,-5.96 -2.95,-10.75 -1.3,-4.77 -1.8,-10.27 -1.47,-16.51 15.58,-6.84 26.16,-13.58 31.77,-20.25 5.59,-6.66 6.71,-16.22 3.3,-28.61l-95 -346.35c-14.92,-2.05 -32.53,-0.82 -52.82,3.72 -3.16,-11.44 -4.54,-20.3 -4.2,-26.54l163.86 -44.96c3.41,12.42 5.03,21.19 4.93,26.34 -15.69,6.37 -26.32,13.02 -31.85,19.91 -5.55,6.92 -6.63,16.56 -3.23,28.98z"/>
  <path class="fil0" d="M5861.16 8524.83c-4.39,-7.32 -7.31,-12.83 -8.73,-16.52 -1.41,-3.69 -2.16,-6.33 -2.24,-7.89l157.94 -60.66c3.34,4.56 7.22,12.61 11.65,24.14 -18.96,9.94 -29.66,17.62 -32.07,23.06 -2.42,5.44 -2.79,10.34 -1.1,14.73 1.68,4.38 4.93,9.37 9.7,14.94l184.6 203.35c12.68,13.68 22.66,26.55 29.92,38.58l2.78 -1.08 -2.81 -355.01c-15.97,-0.24 -33.47,2.52 -52.48,8.22 -4.42,-11.54 -6.92,-20.13 -7.48,-25.74l122.61 -47.08c3.16,10.97 4.95,19.82 5.42,26.53 -22.41,13.38 -33.65,31.73 -33.72,55.09l-2.77 429.49 -25.62 9.85 -315 -340.05c-13.15,0.28 -26.68,2.3 -40.6,6.05z"/>
  <path class="fil0" d="M6741.34 8530.48l103.75 -60.71c20.9,-12.23 31.6,-25.8 32.07,-40.69 0.46,-14.88 -5.67,-36.09 -18.34,-63.63 3.18,-2.43 7.1,-5.01 11.79,-7.76 4.71,-2.76 9.98,-4.98 15.86,-6.71 14.45,20.78 26.48,39.39 36.1,55.82 9.61,16.44 17.33,30.12 23.15,41.05l-293.3 171.64c-1.24,-2.12 -3.13,-5.33 -5.64,-9.61 -2.49,-4.26 -4.37,-9.46 -5.69,-15.57 13.28,-10.64 21.75,-19.9 25.45,-27.78 3.68,-7.91 2.28,-17.4 -4.2,-28.5l-181.4 -309.96c-14.94,1.87 -31.63,7.62 -50.07,17.26 -5.99,-10.25 -9.64,-18.44 -10.93,-24.55l284.36 -166.41c5.92,9.16 13.68,21.94 23.31,38.37 9.61,16.44 19.27,35.89 28.94,58.29 -2.49,2.6 -10.56,7.91 -24.23,15.9 -16.88,-23.94 -31.74,-39.31 -44.6,-46.12 -12.87,-6.79 -29.56,-4.19 -50.04,7.8l-97.98 57.35 91.45 156.25 95.9 -63.84 21.76 -12.75 22.48 38.43 -21.76 12.73 -101.51 54.27 93.32 159.45z"/>
  <path class="fil0" d="M7059.24 7887.51l228.15 277.38c14.83,-4.52 30.03,-12.54 45.55,-24.01 0.94,1.14 2.67,3.25 5.18,6.29 2.52,3.05 6.02,8.5 10.53,16.32l-131.22 107.94c-1.57,-1.9 -3.95,-4.78 -7.08,-8.61 -3.14,-3.81 -5.83,-8.64 -8.07,-14.47 11.42,-12.59 18.32,-23.09 20.72,-31.47 2.41,-8.38 -0.49,-17.53 -8.66,-27.47l-228.14 -277.37c-14.47,4.21 -30.04,12.54 -46.72,24.96 -7.54,-9.16 -12.44,-16.68 -14.67,-22.51l131.22 -107.94c8.17,9.93 13.26,17.29 15.27,22.04 -11.74,12.21 -18.72,22.61 -20.96,31.18 -2.24,8.57 0.72,17.82 8.89,27.74z"/>
  <path class="fil0" d="M7517.61 7703.12l38.3 -39.36c43.82,-45.01 43.66,-89.01 -0.47,-131.95 -44.14,-42.95 -88.12,-41.93 -131.93,3.1l-38.3 39.35 132.41 128.86zm356.07 -55.21c7.82,7.59 14.03,15.02 18.68,22.3l-71.94 73.93 -191.84 -61.41c-12.64,-4.03 -23.17,-5.46 -31.54,-4.3 -8.38,1.17 -17.58,6.89 -27.59,17.17l-28.98 29.79 123.38 120.06c20.16,-9.37 37.85,-20.83 53.06,-34.31 1.06,1.05 3.01,2.94 5.84,5.7 2.82,2.76 6.93,7.78 12.28,15.06l-126.27 129.73c-1.77,-1.72 -4.43,-4.31 -7.98,-7.77 -3.54,-3.44 -6.74,-7.95 -9.62,-13.49 9.96,-13.79 15.66,-24.96 17.11,-33.55 1.45,-8.6 -2.42,-17.39 -11.64,-26.35l-256.85 -249.96c-15.31,6.5 -30.03,16.32 -44.21,29.46 -8.51,-8.28 -14.19,-15.21 -17.07,-20.76l132.99 -136.67c35.2,-36.16 70.34,-56.31 105.46,-60.46 35.09,-4.15 66.28,7.07 93.59,33.63 20.57,20.02 32.59,42.76 36.09,68.24 3.49,25.49 -2.63,52 -18.33,79.49 14.26,-4.74 33.71,-3.42 58.29,3.93l114.32 33.61c17.93,5.7 31.96,7.62 42.07,5.72 10.14,-1.9 20.35,-8.14 30.7,-18.78z"/>
  <path class="fil0" d="M7981.44 7234.35l77.78 -108.59 -214.7 -69.79 20.86 23.14 116.07 155.25zm226.16 10.47c-8.44,-6.05 -15.31,-12.19 -20.59,-18.39 10.38,-23 16.11,-40.78 17.22,-53.39l-111.83 -36.28 -89.87 125.47 74.32 98.88c12.13,-5.9 26.1,-19.03 41.88,-39.36 5.23,3.74 12.08,9.88 20.59,18.39l-84.69 118.23c-8.45,-6.04 -15.3,-12.18 -20.59,-18.4 12.12,-25.4 11.09,-48.63 -3.02,-69.7l-243.67 -335.17c5.49,-16.15 16.71,-36.09 33.71,-59.83l401.38 127.76c15.35,4.93 28.06,5.65 38.12,2.21 10.08,-3.44 20.55,-11.89 31.45,-25.41 9.07,7.71 15.8,14.06 20.16,19l-104.57 145.99z"/>
  <path class="fil0" d="M1656.59 5434.06l0 -640.76c101.32,0 173.84,-13.51 217.61,-40.59 43.74,-27.05 65.62,-78 65.62,-152.85l0 -873.9c0,-76 -21.87,-127.52 -65.62,-154.58 -43.76,-27.06 -116.29,-40.6 -217.61,-40.6l0 -640.75 1828.98 0c169.24,0 311.75,16.69 427.45,50.08 115.72,33.4 208.4,81.17 278.06,143.35 69.65,62.19 119.17,136.45 148.54,222.8 29.36,86.35 44.03,182.49 44.03,288.42 0,193.44 -46.63,348.01 -139.88,463.73 -93.27,115.71 -242.38,178.18 -447.33,187.39l0 20.73c99.03,6.91 181.07,25.32 246.12,55.25 65.05,29.94 116.29,68.79 153.71,116.59 37.43,47.79 63.91,105.34 79.44,172.7 15.55,67.35 23.31,143.64 23.31,228.85l0 91.54c0,28.78 7.48,53.81 22.45,75.12 14.96,21.3 37.99,31.96 69.09,31.96 33.39,0 57,-10.66 70.81,-31.96 13.81,-21.31 20.73,-46.34 20.73,-75.12l0 -438.67 198.61 0 0 438.67c0,82.89 -12.38,159.18 -37.13,228.83 -24.75,69.66 -65.34,130.4 -121.75,182.21 -56.42,51.81 -130.69,91.83 -222.81,120.04 -92.12,28.21 -205.53,42.31 -340.23,42.31 -134.72,0 -244.97,-14.68 -330.74,-44.03 -85.78,-29.37 -152.85,-69.96 -201.21,-121.77 -48.35,-51.81 -82.03,-111.99 -101.03,-180.48 -19,-68.5 -28.49,-140.76 -28.49,-216.75l0 -132.99c0,-92.11 -5.18,-166.66 -15.55,-223.66 -10.37,-56.99 -27.35,-101.33 -50.95,-132.99 -23.61,-31.65 -54.41,-52.67 -92.41,-63.04 -37.98,-10.35 -84.05,-15.55 -138.16,-15.55l-41.44 0 0 246.98c0,61.02 16.97,105.07 50.95,132.12 33.96,27.07 94.69,40.59 182.2,40.59l0 640.76 -1535.37 0zm1302.22 -1366.13l151.97 0c96.72,0 163.22,-23.31 199.49,-69.95 36.26,-46.63 54.39,-111.4 54.39,-194.29 0,-96.73 -18.13,-166.37 -54.39,-208.98 -36.27,-42.6 -102.78,-63.91 -199.49,-63.91l-151.97 0 0 537.13z"/>
  <path class="fil0" d="M4326.77 5076.8c0,-222.23 36.56,-417.1 109.68,-584.62 73.11,-167.54 176.45,-307.72 310.02,-420.56 133.56,-112.83 292.17,-197.45 475.82,-253.88 183.64,-56.42 386.57,-84.63 608.79,-84.63 221.07,0 423.72,28.21 607.95,84.63 184.21,56.43 342.81,141.05 475.79,253.88 132.99,112.84 236.03,253.03 309.15,420.56 73.12,167.52 109.67,362.39 109.67,584.62 0,221.06 -36.55,415.35 -109.67,582.89 -73.12,167.53 -176.16,308.01 -309.15,421.4 -132.98,113.42 -291.58,198.33 -475.79,254.75 -184.23,56.41 -386.88,84.63 -607.95,84.63 -222.22,0 -425.14,-28.22 -608.79,-84.63 -183.64,-56.42 -342.26,-141.33 -475.82,-254.75 -133.57,-113.4 -236.91,-253.88 -310.02,-421.4 -73.12,-167.54 -109.68,-361.83 -109.68,-582.89zm1160.6 0c0,139.32 5.18,255.88 15.56,349.72 10.35,93.85 28.49,169.84 54.4,227.99 25.89,58.15 60.73,100.18 104.47,126.08 43.76,25.9 100.18,38.86 169.26,38.86 65.63,0 120.89,-12.96 165.81,-38.86 44.89,-25.9 80.3,-67.93 106.21,-126.08 25.91,-58.14 44.04,-134.13 54.4,-227.99 10.36,-93.84 15.55,-210.4 15.55,-349.72 0,-137.02 -5.18,-253.31 -15.55,-348.88 -10.36,-95.56 -28.49,-172.13 -54.4,-229.7 -25.91,-57.57 -61.32,-99.31 -106.21,-125.23 -44.92,-25.89 -100.18,-38.86 -165.81,-38.86 -69.08,0 -125.5,12.97 -169.26,38.86 -43.74,25.92 -78.59,67.66 -104.47,125.23 -25.91,57.56 -44.05,134.13 -54.4,229.7 -10.37,95.57 -15.56,211.86 -15.56,348.88z"/>
  <path class="fil0" d="M1429.5 5960.28c-20.38,32.45 -44.81,48.69 -73.29,48.69 -28.48,0 -52.68,-15.35 -72.6,-46.01 -19.91,-30.67 -29.87,-72.1 -29.87,-124.35 0,-52.24 10.89,-94.76 32.64,-127.58 21.77,-32.8 48.52,-49.19 80.25,-49.19 23.15,0 42.37,5.71 57.65,17.12 -0.46,25.66 -2.54,51.51 -6.25,77.54 -6.26,0 -9.73,-0.17 -10.42,-0.51 -0.45,-19.26 -4.46,-34.7 -11.98,-46.28 -7.52,-11.58 -17.55,-17.38 -30.05,-17.38 -22.22,0 -40.17,12.75 -53.82,38.24 -13.67,25.5 -20.5,60.18 -20.5,104.04 0,43.85 7,77.82 21.01,101.88 14.01,24.09 31.6,36.12 52.8,36.12 21.19,0 40,-8.57 56.45,-25.68l7.98 13.36z"/>
  <path class="fil0" d="M1511.83 5824.98l25.69 0c29.42,0 44.12,-22.21 44.12,-66.6 0,-44.38 -14.7,-66.58 -44.12,-66.58l-25.69 0 0 133.19zm134.78 156.18c0,7.85 -0.48,14.8 -1.4,20.85l-48.28 0 -42.02 -129.98c-2.79,-8.54 -5.73,-14.71 -8.85,-18.46 -3.14,-3.73 -8.05,-5.61 -14.78,-5.61l-19.44 0 0 124.1c9.71,5.71 19.34,9.1 28.83,10.18 0,1.06 0,3.02 0,5.86 0,2.87 -0.36,7.51 -1.06,13.91l-84.74 0c0,-1.77 0,-4.46 0,-8.01 0,-3.56 0.46,-7.48 1.39,-11.76 7.87,-1.79 13.48,-4.46 16.84,-8.04 3.37,-3.55 5.04,-9.98 5.04,-19.23l0 -258.37c-7.19,-4.64 -15.28,-7.31 -24.32,-8.02 0,-8.56 0.46,-14.96 1.38,-19.26l89.28 0c23.62,0 41.86,8.02 54.71,24.07 12.85,16.06 19.27,37.79 19.27,65.24 0,20.71 -3.69,38.35 -11.11,52.96 -7.41,14.62 -18.29,24.79 -32.64,30.49 6.24,5 12.15,15.69 17.71,32.09l26.05 75.96c3.94,12.12 7.87,20.33 11.81,24.61 3.94,4.29 9.38,6.43 16.34,6.43z"/>
  <path class="fil0" d="M1722.33 5979.03l56.26 0c11.36,0 18.89,-4.55 22.59,-13.65 3.69,-9.08 6.25,-24.52 7.63,-46.28 1.87,-0.34 4.06,-0.51 6.61,-0.51 2.55,0 5.2,0.51 7.98,1.6 0.93,18.17 1.4,34.13 1.4,47.87 0,13.73 -0.11,25.05 -0.35,33.95l-159.09 0c0,-1.77 0,-4.46 0,-8.01 0,-3.56 0.46,-7.48 1.38,-11.76 7.88,-1.79 13.48,-4.46 16.85,-8.04 3.36,-3.55 5.04,-9.98 5.04,-19.23l0 -258.91c-6.48,-4.28 -14.6,-6.77 -24.33,-7.48 0,-8.56 0.46,-14.96 1.39,-19.26l154.23 0c0.24,7.86 0.35,18.63 0.35,32.37 0,13.73 -0.7,29.32 -2.08,46.78 -1.62,0.74 -6.14,1.09 -13.54,1.09 -1.16,-21.05 -3.53,-36.04 -7.12,-44.94 -3.6,-8.91 -10.95,-13.37 -22.07,-13.37l-53.14 0 0 130.52 53.84 -4.81 11.8 0 0 32.09 -11.8 0 -53.84 -3.22 0 133.2z"/>
  <path class="fil0" d="M1904.69 5865.09l62.53 0 -31.96 -155.12 -3.14 21.92 -27.43 133.2zm57.66 136.92c0,-7.48 0.46,-14.07 1.39,-19.77 11.58,-3.58 19.91,-7.68 25.01,-12.31l-16.67 -80.78 -72.27 0 -17.35 85.06c5.55,4.64 14.36,7.29 26.4,8.02 0,4.64 -0.46,11.23 -1.39,19.77l-68.09 0c0,-7.48 0.47,-14.07 1.4,-19.77 12.97,-3.58 21.53,-13.91 25.69,-31.03l61.14 -283.48c7.65,-3.58 18.31,-5.37 31.96,-5.37l60.79 288.85c2.32,11.04 5.5,18.8 9.54,23.27 4.07,4.46 10.14,7.03 18.25,7.76 -0.46,8.54 -1.04,15.14 -1.74,19.77l-84.06 0z"/>
  <polygon class="fil0" points="2145.07,5620.11 2172.5,5620.11 2105.47,6028.77 2078.02,6028.77 "/>
  <path class="fil0" d="M2492.77 6002.01l-84.41 0c-0.24,-3.55 -0.37,-6.94 -0.37,-10.16 0,-3.21 0.13,-6.4 0.37,-9.61 8.33,-1.79 14.59,-4.55 18.74,-8.3 4.18,-3.75 6.15,-10.07 5.91,-18.97l-7.65 -240.71 -11.11 45.99 -62.53 241.76 -10.07 0 -67.73 -290.96 -12.17 264.77c6.02,3.56 14.6,5.7 25.71,6.43 -0.24,4.98 -0.81,11.58 -1.74,19.77l-70.52 0c0.48,-8.9 1.06,-15.5 1.74,-19.77 16.22,-3.58 24.55,-13.39 25.01,-29.43l11.12 -257.81c-5.78,-3.57 -11.93,-5.54 -18.42,-5.88 -0.23,-2.13 -0.34,-5.09 -0.34,-8.84 0,-3.73 0.57,-7.39 1.72,-10.96l60.11 0 56.27 244.44 62.53 -244.44 58.02 0c0.68,4.29 1.04,8.11 1.04,11.5 0,3.39 0,5.99 0,7.76 -6.25,1.09 -10.89,3.75 -13.9,8.02 -3.01,4.29 -4.41,11.23 -4.17,20.88l11.11 257.8c7.63,3.93 16.22,6.24 25.71,6.97 0.22,3.22 0.34,6.41 0.34,9.61 0,3.22 -0.12,6.6 -0.34,10.16z"/>
  <path class="fil0" d="M2680.69 5669.31c0.93,11.41 1.38,23.53 1.38,36.38 0,12.83 -0.34,26.03 -1.04,39.57 -2.55,1.44 -4.87,2.13 -6.96,2.13 -2.07,0 -3.69,-0.17 -4.86,-0.51 -0.93,-20.68 -3.7,-35.04 -8.33,-43.06 -4.64,-8.02 -12.16,-12.03 -22.57,-12.03l-27.09 0 0 282.42c8.33,4.64 18.28,7.29 29.87,8.02 0.24,2.13 0.35,4.9 0.35,8.28 0,3.39 -0.47,7.22 -1.4,11.49l-92.74 0c-0.22,-1.77 -0.35,-4.46 -0.35,-8.01 0,-3.56 0.58,-7.48 1.75,-11.76 10.88,-1.79 18.35,-4.46 22.4,-8.04 4.06,-3.55 6.09,-9.98 6.09,-19.23l0 -263.18 -27.09 0c-10.43,0 -17.95,4.01 -22.57,12.03 -4.64,8.02 -7.42,22.39 -8.35,43.06 -1.38,0.35 -3.14,0.51 -5.21,0.51 -2.08,0 -4.28,-0.69 -6.59,-2.13 -0.7,-10.7 -1.05,-22.28 -1.05,-34.76 0,-12.49 0.45,-26.2 1.38,-41.19l172.99 0z"/>
  <path class="fil0" d="M4459.3 8709.07c34.16,-0.47 65.09,9.1 92.83,28.6 30.04,21.01 53.27,48.46 69.59,82.44 16.34,33.99 24.66,73.51 25.05,118.49 0.63,69.62 -16.72,126.72 -52.12,171.2 -35.4,44.35 -80.81,66.97 -136.28,67.73 -61.9,0.85 -111.11,-24.9 -147.66,-77.16 -29.96,-42.67 -45.16,-93.98 -45.69,-153.95 -0.4,-44.52 7.57,-84.62 23.92,-120.27 16.26,-35.54 39.63,-63.85 70.02,-84.81 30.4,-20.95 63.91,-31.75 100.34,-32.26zm0.23 35.32c-28.01,0.38 -51.93,8.49 -71.93,24.2 -19.91,15.7 -35.82,38.7 -47.73,68.84 -11.81,30.26 -17.52,67.43 -17.12,111.51 0.38,42.1 6.64,77.76 18.81,106.91 12.25,29.15 28.47,51.36 48.66,66.63 20.28,15.27 42.96,22.73 68.05,22.39 24.9,-0.35 46.89,-8.31 65.98,-23.79 19.09,-15.48 34.71,-39.69 46.97,-72.61 12.24,-32.93 18.23,-69.33 17.87,-109.42 -0.37,-40.64 -7.01,-77.63 -19.85,-111.23 -10.98,-28.83 -25.45,-50.06 -43.34,-63.59 -17.87,-13.63 -40,-20.21 -66.38,-19.85z"/>
  <path class="fil0" d="M5577.8 116.41c33.34,7.37 61.26,23.79 83.78,49.12 24.42,27.36 40.72,59.41 48.82,96.22 8.09,36.82 7.13,77.2 -2.8,121.07 -15.37,67.91 -45.35,119.5 -90.02,154.66 -44.63,35.04 -94.01,46.64 -148.18,34.65 -60.43,-13.37 -102.43,-49.74 -126.01,-108.98 -19.36,-48.41 -22.39,-101.85 -9.14,-160.34 9.82,-43.43 26.79,-80.62 50.88,-111.57 23.97,-30.86 53.22,-53.05 87.61,-66.48 34.4,-13.43 69.49,-16.25 105.07,-8.37zm-7.9 34.42c-27.35,-6.05 -52.48,-3.65 -75.56,7.05 -22.99,10.73 -43.74,29.44 -62.26,56.05 -18.44,26.75 -32.53,61.61 -42.26,104.61 -9.29,41.05 -11.37,77.21 -6.22,108.37 5.24,31.18 15.93,56.53 32.08,76.02 16.24,19.51 36.6,31.98 61.1,37.4 24.31,5.39 47.55,2.67 69.68,-8 22.13,-10.68 42.9,-30.67 62.37,-59.9 19.48,-29.24 33.67,-63.29 42.51,-102.38 8.97,-39.64 11,-77.18 6.2,-112.82 -4.06,-30.59 -13.28,-54.57 -27.58,-71.83 -14.28,-17.39 -34.31,-28.86 -60.06,-34.57z"/>
  <path class="fil0" d="M2871.34 5694.43c22.77,0 42.41,6.21 58.86,18.56 16.45,12.34 29.34,30.02 38.66,53.15 9.32,23.05 13.95,52.46 13.95,88.24 0,40.27 -4.25,71.31 -12.82,93.11 -9.69,24.69 -22.77,43.31 -39.22,55.87 -16.5,12.57 -36.71,18.86 -60.73,18.86 -23.39,0 -43.09,-6.13 -59.23,-18.32 -16.07,-12.18 -28.83,-30.18 -38.29,-54.01 -9.44,-23.9 -14.12,-54.25 -14.12,-91.26 0,-37.09 4.69,-67.43 14.07,-90.95 9.32,-23.51 22.32,-41.67 39.03,-54.32 16.63,-12.65 36.59,-18.94 59.85,-18.94zm48.04 163.98c0,-41.52 -4.94,-71.63 -14.88,-90.25 -8.82,-16.23 -20.39,-24.37 -34.71,-24.37 -13.26,0 -24.33,8.54 -33.34,25.68 -9,17.15 -13.51,46.79 -13.51,88.94 0,42.21 4.51,71.78 13.58,88.85 9.07,17.08 20.45,25.6 34.21,25.6 13.83,0 25.39,-8.76 34.71,-26.3 9.32,-17.46 13.95,-46.87 13.95,-88.15z"/>
  <path id="_1" class="fil0" d="M3059.42 5802l-37.9 0c0,-3.49 0,-6.37 0,-8.62 0,-19.55 3.56,-36.47 10.69,-50.59 7.14,-14.2 18.33,-25.77 33.53,-34.85 15.2,-9 32.59,-13.5 52.1,-13.5 18.58,0 35.22,4.04 49.98,12.11 14.82,8.14 25.83,18.55 33.08,31.27 7.25,12.65 10.88,25.77 10.88,39.27 0,10.55 -2.25,20.95 -6.75,31.19 -4.57,10.17 -10.64,18.86 -18.33,26 -5.13,4.66 -12.76,9.48 -22.89,14.28 9.26,1.24 17.45,3.96 24.7,8.3 7.25,4.35 13.57,9.78 18.95,16.37 5.32,6.6 9.32,14.05 12.01,22.36 2.63,8.38 3.94,17.38 3.94,27.08 0,17.46 -4.14,33.76 -12.45,48.89 -8.32,15.13 -20.71,27.39 -37.09,36.71 -16.39,9.31 -35.4,13.97 -57.04,13.97 -21.15,0 -39.97,-4.42 -56.49,-13.2 -16.5,-8.76 -28.96,-19.94 -37.28,-33.36 -8.31,-13.51 -12.44,-26.94 -12.44,-40.28 0,-10.09 2.93,-18.86 8.74,-26.08 5.88,-7.29 12.95,-10.94 21.27,-10.94 7.95,0 14.95,3.42 21.01,10.24 3.95,4.35 7.25,11.87 10.07,22.51 3.57,13.81 6.76,22.89 9.64,27.39 2.87,4.42 7.5,8.46 14.01,11.95 6.45,3.49 13.01,5.2 19.77,5.2 7.81,0 15.32,-2.33 22.57,-7.07 7.25,-4.74 12.57,-10.63 16.02,-17.85 3.43,-7.22 5.12,-15.91 5.12,-26.08 0,-18.7 -5.81,-32.43 -17.38,-41.21 -8.95,-6.83 -22.84,-10.25 -41.6,-10.25l-11.94 0 0 -43.76 11.94 0c14.88,0 25.58,-1.32 31.97,-4.04 6.44,-2.71 11.44,-7.29 15.13,-13.74 3.69,-6.36 5.5,-13.27 5.5,-20.64 0,-10.09 -3.06,-18.78 -9.12,-26 -7.7,-9.23 -19.46,-13.81 -35.22,-13.81 -10.51,0 -19.15,1.93 -25.9,5.89 -6.82,3.88 -12.13,9.47 -15.95,16.61 -3.87,7.22 -6.12,16.6 -6.88,28.25z"/>
  <path id="_2" class="fil0" d="M3416.57 5840.72c18.89,9.24 33.4,21.8 43.66,37.71 8.07,12.26 12.08,27.47 12.08,45.63 0,27.78 -8.82,50.52 -26.46,68.45 -19.71,19.79 -46.09,29.72 -79.26,29.72 -22.2,0 -41.34,-4.19 -57.47,-12.5 -16.14,-8.3 -28.21,-19.01 -36.14,-32.13 -7.96,-13.12 -11.95,-26.62 -11.95,-40.59 0,-14.51 4.31,-28.41 12.94,-41.51 8.7,-13.2 22.22,-24.45 40.6,-33.69 -15.32,-8.61 -26.83,-19.71 -34.53,-33.36 -7.69,-13.66 -11.51,-28.64 -11.51,-45.01 0,-16.15 3.63,-30.89 10.95,-44 7.25,-13.2 18.58,-23.98 33.9,-32.44 15.39,-8.38 33.03,-12.57 52.91,-12.57 25.21,0 46.78,6.75 64.81,20.33 17.94,13.58 26.95,31.98 26.95,55.33 0,13.58 -2.99,26.08 -9.06,37.33 -6.07,11.33 -16.9,22.42 -32.4,33.29zm-35.02 -19.4l6.81 -9.39c4.38,-5.74 7.31,-10.25 8.82,-13.42 2.18,-4.42 3.75,-8.46 4.69,-12.19 0.94,-3.72 1.38,-7.52 1.38,-11.32 0,-8.15 -3.44,-15.45 -10.38,-21.73 -6.95,-6.29 -16.64,-9.47 -29.03,-9.47 -11.88,0 -21.14,2.95 -27.71,8.76 -6.57,5.9 -9.82,12.65 -9.82,20.41 0,6.83 1.93,12.65 5.87,17.54 5.32,6.51 14.95,13.34 28.9,20.57l20.46 10.24zm-31.09 61.78c-11.88,7.6 -20.58,15.75 -26.21,24.44 -5.64,8.77 -8.45,17.15 -8.45,25.23 0,6.36 1.94,12.72 5.75,19.01 3.82,6.37 9.63,11.41 17.39,15.29 7.82,3.88 16.95,5.81 27.39,5.81 10.38,0 19.52,-1.78 27.47,-5.35 7.88,-3.57 13.5,-7.99 16.82,-13.2 3.32,-5.27 5,-10.94 5,-16.99 0,-7.61 -2.13,-13.9 -6.32,-18.94 -6,-7.29 -16.44,-14.59 -31.28,-21.88l-27.58 -13.42z"/>
  <path id="_3" class="fil0" d="M3529.91 5690.25l24.21 0 2.56 9.78 170.88 0 0 43.84c-16.26,19.55 -29.39,37.94 -39.34,55.25 -9.94,17.3 -19.2,37.48 -27.71,60.6 -8.5,23.05 -14.82,44.78 -18.95,64.96 -4.19,20.25 -7.89,51.06 -11.2,92.42l-65.67 0c2.93,-37.49 7.88,-68.76 14.82,-93.67 6.95,-24.99 18.14,-52 33.53,-81.09 15.4,-29.1 31.59,-53.85 48.66,-74.34l-83.3 0c-10.64,0 -17.59,0.78 -20.89,2.25 -3.32,1.55 -5.94,3.96 -7.89,7.29 -1.93,3.34 -4.13,10.87 -6.56,22.58l-3.88 18.39 -34.9 -10.17 25.64 -118.11z"/>
  <path id="_4" class="fil0" d="M3912.08 5840.72c18.89,9.24 33.4,21.8 43.66,37.71 8.07,12.26 12.08,27.47 12.08,45.63 0,27.78 -8.82,50.52 -26.46,68.45 -19.71,19.79 -46.09,29.72 -79.26,29.72 -22.2,0 -41.34,-4.19 -57.47,-12.5 -16.14,-8.3 -28.21,-19.01 -36.15,-32.13 -7.95,-13.12 -11.94,-26.62 -11.94,-40.59 0,-14.51 4.31,-28.41 12.94,-41.51 8.7,-13.2 22.22,-24.45 40.6,-33.69 -15.32,-8.61 -26.83,-19.71 -34.53,-33.36 -7.69,-13.66 -11.51,-28.64 -11.51,-45.01 0,-16.15 3.62,-30.89 10.95,-44 7.25,-13.2 18.58,-23.98 33.9,-32.44 15.39,-8.38 33.03,-12.57 52.91,-12.57 25.21,0 46.78,6.75 64.81,20.33 17.94,13.58 26.95,31.98 26.95,55.33 0,13.58 -3,26.08 -9.06,37.33 -6.07,11.33 -16.9,22.42 -32.4,33.29zm-35.02 -19.4l6.81 -9.39c4.38,-5.74 7.31,-10.25 8.81,-13.42 2.19,-4.42 3.76,-8.46 4.7,-12.19 0.94,-3.72 1.37,-7.52 1.37,-11.32 0,-8.15 -3.44,-15.45 -10.37,-21.73 -6.95,-6.29 -16.65,-9.47 -29.03,-9.47 -11.88,0 -21.14,2.95 -27.71,8.76 -6.57,5.9 -9.82,12.65 -9.82,20.41 0,6.83 1.93,12.65 5.87,17.54 5.32,6.51 14.95,13.34 28.9,20.57l20.46 10.24zm-31.09 61.78c-11.88,7.6 -20.58,15.75 -26.21,24.44 -5.64,8.77 -8.45,17.15 -8.45,25.23 0,6.36 1.93,12.72 5.75,19.01 3.81,6.37 9.63,11.41 17.38,15.29 7.83,3.88 16.96,5.81 27.4,5.81 10.38,0 19.51,-1.78 27.47,-5.35 7.88,-3.57 13.5,-7.99 16.82,-13.2 3.32,-5.27 5,-10.94 5,-16.99 0,-7.61 -2.13,-13.9 -6.32,-18.94 -6,-7.29 -16.44,-14.59 -31.28,-21.88l-27.58 -13.42z"/>
  <path id="_5" class="fil0" d="M4025.42 5690.25l24.2 0 2.57 9.78 170.88 0 0 43.84c-16.26,19.55 -29.39,37.94 -39.34,55.25 -9.94,17.3 -19.2,37.48 -27.71,60.6 -8.51,23.05 -14.82,44.78 -18.95,64.96 -4.19,20.25 -7.89,51.06 -11.2,92.42l-65.67 0c2.93,-37.49 7.88,-68.76 14.82,-93.67 6.95,-24.99 18.14,-52 33.53,-81.09 15.39,-29.1 31.58,-53.85 48.66,-74.34l-83.3 0c-10.64,0 -17.59,0.78 -20.89,2.25 -3.32,1.55 -5.94,3.96 -7.89,7.29 -1.93,3.34 -4.13,10.87 -6.56,22.58l-3.88 18.39 -34.9 -10.17 25.64 -118.11z"/>
 </g>
</svg>
